<?xml version="1.0" standalone="no"?>
<!DOCTYPE svg PUBLIC "-//W3C//DTD SVG 1.1//EN" 
	"http://www.w3.org/Graphics/SVG/1.1/DTD/svg11.dtd">
<svg viewBox="29.899599075317383 72.65984344482422 263.3919982910156 159.83999633789062"
	xmlns="http://www.w3.org/2000/svg" xmlns:xlink="http://www.w3.org/1999/xlink" version="1.1">
	<!-- de.fxdiagram.lib.nodes.RectangleBorderPane -->
	<rect
		transform="matrix(1.0,0.0,0.0,1.0,30.49959945678711,193.49984741210938)"  
		width="80.4" height="38.400000000000006"
		rx="12.0" ry="12.0"
		fill="url(#Gradient1)"
		stroke="rgb(128,128,128)"
		strokeWidth="1.2"
	/>
	<!-- javafx.scene.text.Text -->
	<path d="M 81.02113342285156 211.50355529785156 Q 82.45863342285156 211.50355529785156 82.45863342285156 213.42543029785156 L 79.41175842285156 213.42543029785156 Q 79.58363342285156 211.50355529785156 81.02113342285156 211.50355529785156 ZM 73.14955139160156 211.50355529785156 Q 74.11830139160156 211.50355529785156 74.94642639160156 212.36293029785156 L 74.94642639160156 215.22230529785156 Q 73.99330139160156 216.36293029785156 72.89955139160156 216.36293029785156 Q 71.30580139160156 216.36293029785156 71.30580139160156 214.09730529785156 Q 71.30580139160156 212.89418029785156 71.79798889160156 212.19886779785156 Q 72.29017639160156 211.50355529785156 73.14955139160156 211.50355529785156 ZM 60.97914123535156 214.25355529785156 L 61.40101623535156 214.26918029785156 L 61.40101623535156 216.05043029785156 Q 60.55726623535156 216.75355529785156 59.77601623535156 216.75355529785156 Q 59.32289123535156 216.75355529785156 59.00257873535156 216.44105529785156 Q 58.68226623535156 216.12855529785156 58.68226623535156 215.67543029785156 Q 58.68226623535156 215.03480529785156 59.31507873535156 214.64418029785156 Q 59.94789123535156 214.25355529785156 60.97914123535156 214.25355529785156 ZM 68.61146545410156 210.56605529785156 Q 67.20521545410156 210.56605529785156 66.45521545410156 212.01918029785156 L 66.45521545410156 210.72230529785156 L 65.20521545410156 210.72230529785156 L 65.20521545410156 217.61293029785156 L 66.45521545410156 217.61293029785156 L 66.45521545410156 213.06605529785156 Q 67.25209045410156 211.65980529785156 68.43959045410156 211.65980529785156 Q 68.68959045410156 211.65980529785156 69.01771545410156 211.76918029785156 L 69.01771545410156 210.59730529785156 Q 68.79896545410156 210.56605529785156 68.61146545410156 210.56605529785156 ZM 54.46058654785156 209.34730529785156 L 53.21058654785156 209.47230529785156 L 53.21058654785156 210.72230529785156 L 52.35121154785156 210.72230529785156 L 52.35121154785156 211.65980529785156 L 53.21058654785156 211.65980529785156 L 53.21058654785156 215.70668029785156 Q 53.21058654785156 216.67543029785156 53.74964904785156 217.22230529785156 Q 54.28871154785156 217.76918029785156 55.22621154785156 217.76918029785156 Q 55.66371154785156 217.76918029785156 56.24183654785156 217.61293029785156 L 56.24183654785156 216.75355529785156 Q 55.88246154785156 216.83168029785156 55.63246154785156 216.83168029785156 Q 54.46058654785156 216.83168029785156 54.46058654785156 215.47230529785156 L 54.46058654785156 211.65980529785156 L 56.27308654785156 211.65980529785156 L 56.27308654785156 210.72230529785156 L 54.46058654785156 210.72230529785156 L 54.46058654785156 209.34730529785156 ZM 60.40101623535156 210.56605529785156 Q 59.29164123535156 210.56605529785156 58.02601623535156 211.08168029785156 L 58.02601623535156 212.11293029785156 Q 59.18226623535156 211.50355529785156 60.16664123535156 211.50355529785156 Q 61.40101623535156 211.50355529785156 61.40101623535156 212.70668029785156 L 61.40101623535156 213.53480529785156 L 61.10414123535156 213.53480529785156 Q 59.32289123535156 213.53480529785156 58.37757873535156 214.14418029785156 Q 57.43226623535156 214.75355529785156 57.43226623535156 215.87855529785156 Q 57.43226623535156 216.69105529785156 57.99476623535156 217.23011779785156 Q 58.55726623535156 217.76918029785156 59.41664123535156 217.76918029785156 Q 60.46351623535156 217.76918029785156 61.58851623535156 216.73793029785156 Q 61.82289123535156 217.76918029785156 62.69789123535156 217.76918029785156 Q 63.21351623535156 217.76918029785156 63.63539123535156 217.56605529785156 L 63.54164123535156 216.87855529785156 Q 63.38539123535156 216.89418029785156 63.30726623535156 216.89418029785156 Q 62.65101623535156 216.89418029785156 62.65101623535156 215.83168029785156 L 62.65101623535156 212.70668029785156 Q 62.65101623535156 211.61293029785156 62.10414123535156 211.08949279785156 Q 61.55726623535156 210.56605529785156 60.40101623535156 210.56605529785156 ZM 81.09925842285156 210.56605529785156 Q 79.78675842285156 210.56605529785156 78.93519592285156 211.56605529785156 Q 78.08363342285156 212.56605529785156 78.08363342285156 214.12855529785156 Q 78.08363342285156 215.75355529785156 79.04457092285156 216.76136779785156 Q 80.00550842285156 217.76918029785156 81.53675842285156 217.76918029785156 Q 82.42738342285156 217.76918029785156 83.67738342285156 217.39418029785156 L 83.67738342285156 216.39418029785156 Q 82.55238342285156 216.81605529785156 81.77113342285156 216.81605529785156 Q 79.63050842285156 216.81605529785156 79.36488342285156 214.36293029785156 L 83.70863342285156 214.36293029785156 L 83.70863342285156 213.97230529785156 Q 83.70863342285156 212.33168029785156 83.02894592285156 211.44886779785156 Q 82.34925842285156 210.56605529785156 81.09925842285156 210.56605529785156 ZM 87.17005920410156 209.34730529785156 L 85.92005920410156 209.47230529785156 L 85.92005920410156 210.72230529785156 L 85.06068420410156 210.72230529785156 L 85.06068420410156 211.65980529785156 L 85.92005920410156 211.65980529785156 L 85.92005920410156 215.70668029785156 Q 85.92005920410156 216.67543029785156 86.45912170410156 217.22230529785156 Q 86.99818420410156 217.76918029785156 87.93568420410156 217.76918029785156 Q 88.37318420410156 217.76918029785156 88.95130920410156 217.61293029785156 L 88.95130920410156 216.75355529785156 Q 88.59193420410156 216.83168029785156 88.34193420410156 216.83168029785156 Q 87.17005920410156 216.83168029785156 87.17005920410156 215.47230529785156 L 87.17005920410156 211.65980529785156 L 88.98255920410156 211.65980529785156 L 88.98255920410156 210.72230529785156 L 87.17005920410156 210.72230529785156 L 87.17005920410156 209.34730529785156 ZM 72.96205139160156 210.56605529785156 Q 71.64955139160156 210.56605529785156 70.81361389160156 211.55824279785156 Q 69.97767639160156 212.55043029785156 69.97767639160156 214.12855529785156 Q 69.97767639160156 215.64418029785156 70.71205139160156 216.55043029785156 Q 71.44642639160156 217.45668029785156 72.68080139160156 217.45668029785156 Q 74.25892639160156 217.45668029785156 74.94642639160156 216.00355529785156 L 74.94642639160156 217.09730529785156 Q 74.94642639160156 219.33168029785156 72.83705139160156 219.33168029785156 Q 71.77455139160156 219.33168029785156 70.69642639160156 218.81605529785156 L 70.55580139160156 219.90980529785156 Q 71.64955139160156 220.26918029785156 72.86830139160156 220.26918029785156 Q 74.58705139160156 220.26918029785156 75.39955139160156 219.40980529785156 Q 75.86830139160156 218.90980529785156 76.04017639160156 218.12855529785156 Q 76.21205139160156 217.34730529785156 76.21205139160156 215.73793029785156 L 76.21205139160156 210.72230529785156 L 74.94642639160156 210.72230529785156 L 74.94642639160156 211.50355529785156 Q 74.11830139160156 210.56605529785156 72.96205139160156 210.56605529785156 Z"
		fill="rgb(0,0,0)"
		stroke-linecap="square" 
		stroke-miterLimit="10.0" 
		stroke-width="0.0"
	/>
	<!-- de.fxdiagram.lib.nodes.RectangleBorderPane -->
	<rect
		transform="matrix(1.05,0.0,0.0,1.05,190.39160221219063,78.5398398220539)"  
		width="84.4" height="38.400000000000006"
		rx="12.0" ry="12.0"
		fill="url(#Gradient2)"
		stroke="rgb(128,128,128)"
		strokeWidth="1.2"
	/>
	<!-- javafx.scene.text.Text -->
	<path d="M 252.9174041748047 97.44373321533203 Q 254.42678833007812 97.44373321533203 254.42678833007812 99.46170806884766 L 251.22756958007812 99.46170806884766 Q 251.4080352783203 97.44373321533203 252.9174041748047 97.44373321533203 ZM 223.8619384765625 97.44373321533203 Q 225.9127197265625 97.44373321533203 225.9127197265625 100.23279571533203 Q 225.9127197265625 103.03826904296875 223.82913208007812 103.03826904296875 Q 221.7947540283203 103.03826904296875 221.7947540283203 100.23279571533203 Q 221.7947540283203 97.44373321533203 223.8619384765625 97.44373321533203 ZM 241.40689086914062 96.45935821533203 Q 239.93032836914062 96.45935821533203 239.142822265625 97.98514556884766 L 239.142822265625 96.62342071533203 L 237.830322265625 96.62342071533203 L 237.830322265625 103.85858154296875 L 239.142822265625 103.85858154296875 L 239.142822265625 99.08435821533203 Q 239.9795379638672 97.60779571533203 241.22642517089844 97.60779571533203 Q 241.48892211914062 97.60779571533203 241.8334503173828 97.72264099121094 L 241.8334503173828 96.49217224121094 Q 241.603759765625 96.45935821533203 241.40689086914062 96.45935821533203 ZM 216.29661560058594 96.45935821533203 Q 215.1317596435547 96.45935821533203 214.4591064453125 97.00077056884766 Q 213.7864532470703 97.54217529296875 213.7864532470703 98.49373626708984 Q 213.7864532470703 99.82263946533203 215.49270629882812 100.52811431884766 L 216.2637939453125 100.85623931884766 Q 217.29739379882812 101.29920196533203 217.29739379882812 101.97186279296875 Q 217.29739379882812 102.43123626708984 216.92825317382812 102.73474884033203 Q 216.55911254882812 103.03826904296875 215.98489379882812 103.03826904296875 Q 215.0333251953125 103.03826904296875 213.75364685058594 102.39842224121094 L 213.75364685058594 103.61248779296875 Q 215.0333251953125 104.02264404296875 215.9356689453125 104.02264404296875 Q 217.11692810058594 104.02264404296875 217.8634033203125 103.40740966796875 Q 218.60989379882812 102.79217529296875 218.60989379882812 101.84061431884766 Q 218.60989379882812 101.08592224121094 218.1669158935547 100.58553314208984 Q 217.7239532470703 100.08514404296875 216.6575469970703 99.62577056884766 L 216.0177001953125 99.36326599121094 Q 215.0497283935547 98.95310974121094 215.0497283935547 98.36248779296875 Q 215.0497283935547 97.44373321533203 216.3294219970703 97.44373321533203 Q 216.96926879882812 97.44373321533203 218.0684814453125 97.77185821533203 L 218.0684814453125 96.67264556884766 L 217.78958129882812 96.62342071533203 Q 216.9036407470703 96.45935821533203 216.29661560058594 96.45935821533203 ZM 223.8619384765625 96.45935821533203 Q 222.25413513183594 96.45935821533203 221.32717895507812 97.47654724121094 Q 220.4002227783203 98.49373626708984 220.4002227783203 100.23279571533203 Q 220.4002227783203 101.97186279296875 221.32717895507812 102.99725341796875 Q 222.25413513183594 104.02264404296875 223.81272888183594 104.02264404296875 Q 225.4369354248047 104.02264404296875 226.37210083007812 103.01365661621094 Q 227.3072509765625 102.00467681884766 227.3072509765625 100.23279571533203 Q 227.3072509765625 98.49373626708984 226.3802947998047 97.47654724121094 Q 225.45335388183594 96.45935821533203 223.8619384765625 96.45935821533203 ZM 229.2770233154297 96.62342071533203 L 229.2770233154297 101.82420349121094 Q 229.2770233154297 102.82498931884766 229.8348388671875 103.42381286621094 Q 230.3926544189453 104.02264404296875 231.34422302246094 104.02264404296875 Q 232.83718872070312 104.02264404296875 233.88719177246094 102.49686431884766 L 233.88719177246094 103.85858154296875 L 235.19969177246094 103.85858154296875 L 235.19969177246094 96.62342071533203 L 233.88719177246094 96.62342071533203 L 233.88719177246094 101.31561279296875 Q 232.82078552246094 102.89060974121094 231.6231231689453 102.89060974121094 Q 231.0653076171875 102.89060974121094 230.82742309570312 102.54608154296875 Q 230.5895233154297 102.20154571533203 230.5895233154297 101.39764404296875 L 230.5895233154297 96.62342071533203 ZM 246.46719360351562 96.45935821533203 Q 244.7609405517578 96.45935821533203 243.80117797851562 97.44373321533203 Q 242.84141540527344 98.42810821533203 242.84141540527344 100.19998931884766 Q 242.84141540527344 101.85701751708984 243.8093719482422 102.93982696533203 Q 244.77734375 104.02264404296875 246.2375030517578 104.02264404296875 Q 247.1726531982422 104.02264404296875 248.43594360351562 103.64530181884766 L 248.43594360351562 102.51326751708984 Q 247.484375 102.97264099121094 246.58203125 102.97264099121094 Q 245.5812530517578 102.97264099121094 244.94961547851562 102.21795654296875 Q 244.31797790527344 101.46326446533203 244.31797790527344 100.23279571533203 Q 244.31797790527344 98.98592376708984 244.93321228027344 98.22303009033203 Q 245.54844665527344 97.46014404296875 246.54922485351562 97.46014404296875 Q 247.2546844482422 97.46014404296875 248.35391235351562 97.78826904296875 L 248.35391235351562 96.68904876708984 Q 247.3203125 96.45935821533203 246.46719360351562 96.45935821533203 ZM 252.9994354248047 96.45935821533203 Q 251.62132263183594 96.45935821533203 250.7271728515625 97.50936126708984 Q 249.83303833007812 98.55936431884766 249.83303833007812 100.19998931884766 Q 249.83303833007812 101.90623474121094 250.84202575683594 102.96443939208984 Q 251.8509979248047 104.02264404296875 253.4588165283203 104.02264404296875 Q 254.3939666748047 104.02264404296875 255.7064666748047 103.62889099121094 L 255.7064666748047 102.57889556884766 Q 254.5252227783203 103.02185821533203 253.7049102783203 103.02185821533203 Q 251.45726013183594 103.02185821533203 251.1783447265625 100.44608306884766 L 255.73928833007812 100.44608306884766 L 255.73928833007812 100.03592681884766 Q 255.73928833007812 98.31327056884766 255.02561950683594 97.38631439208984 Q 254.3119354248047 96.45935821533203 252.9994354248047 96.45935821533203 Z"
		fill="rgb(0,0,0)"
		stroke-linecap="square" 
		stroke-miterLimit="10.0" 
		stroke-width="0.0"
	/>
	<!-- javafx.scene.shape.CubicCurve -->
	<path d="M 190.3916015625 93.8353594624578 C 53.5 78.80699920654297 53.5 131.57000732421875 66.629181716304 193.49984741210938"
		fill="none"
		stroke="rgb(0,0,0)"
		stroke-linecap="square" 
		stroke-miterLimit="10.0" 
	/>
	<!-- javafx.scene.text.Text -->
	<path d="M 74.803955078125 91.7353515625 Q 76.241455078125 91.7353515625 76.241455078125 93.6572265625 L 73.194580078125 93.6572265625 Q 73.366455078125 91.7353515625 74.803955078125 91.7353515625 ZM 60.005123138427734 94.4853515625 L 60.426998138427734 94.5009765625 L 60.426998138427734 96.2822265625 Q 59.583248138427734 96.9853515625 58.801998138427734 96.9853515625 Q 58.348873138427734 96.9853515625 58.028560638427734 96.6728515625 Q 57.708248138427734 96.3603515625 57.708248138427734 95.9072265625 Q 57.708248138427734 95.2666015625 58.341060638427734 94.8759765625 Q 58.973873138427734 94.4853515625 60.005123138427734 94.4853515625 ZM 67.528076171875 91.8916015625 Q 69.121826171875 91.8916015625 69.121826171875 94.3134765625 Q 69.121826171875 97.0634765625 67.324951171875 97.0634765625 Q 66.449951171875 97.0634765625 65.481201171875 96.2041015625 L 65.481201171875 93.0322265625 Q 66.481201171875 91.8916015625 67.528076171875 91.8916015625 ZM 53.294185638427734 87.8291015625 L 53.294185638427734 97.8447265625 L 54.544185638427734 97.8447265625 L 54.544185638427734 87.8291015625 ZM 79.656005859375 87.8291015625 L 79.656005859375 97.8447265625 L 80.906005859375 97.8447265625 L 80.906005859375 87.8291015625 ZM 59.426998138427734 90.7978515625 Q 58.317623138427734 90.7978515625 57.051998138427734 91.3134765625 L 57.051998138427734 92.3447265625 Q 58.208248138427734 91.7353515625 59.192623138427734 91.7353515625 Q 60.426998138427734 91.7353515625 60.426998138427734 92.9384765625 L 60.426998138427734 93.7666015625 L 60.130123138427734 93.7666015625 Q 58.348873138427734 93.7666015625 57.403560638427734 94.3759765625 Q 56.458248138427734 94.9853515625 56.458248138427734 96.1103515625 Q 56.458248138427734 96.9228515625 57.020748138427734 97.4619140625 Q 57.583248138427734 98.0009765625 58.442623138427734 98.0009765625 Q 59.489498138427734 98.0009765625 60.614498138427734 96.9697265625 Q 60.848873138427734 98.0009765625 61.723873138427734 98.0009765625 Q 62.239498138427734 98.0009765625 62.661373138427734 97.7978515625 L 62.567623138427734 97.1103515625 Q 62.411373138427734 97.1259765625 62.333248138427734 97.1259765625 Q 61.676998138427734 97.1259765625 61.676998138427734 96.0634765625 L 61.676998138427734 92.9384765625 Q 61.676998138427734 91.8447265625 61.130123138427734 91.3212890625 Q 60.583248138427734 90.7978515625 59.426998138427734 90.7978515625 ZM 64.231201171875 87.8291015625 L 64.231201171875 97.9228515625 L 65.324951171875 97.9228515625 L 65.481201171875 97.0634765625 Q 66.293701171875 98.0009765625 67.512451171875 98.0009765625 Q 68.840576171875 98.0009765625 69.653076171875 96.9541015625 Q 70.465576171875 95.9072265625 70.465576171875 94.1884765625 Q 70.465576171875 92.6103515625 69.746826171875 91.7041015625 Q 69.028076171875 90.7978515625 67.793701171875 90.7978515625 Q 66.246826171875 90.7978515625 65.481201171875 92.2509765625 L 65.481201171875 87.8291015625 ZM 74.882080078125 90.7978515625 Q 73.569580078125 90.7978515625 72.718017578125 91.7978515625 Q 71.866455078125 92.7978515625 71.866455078125 94.3603515625 Q 71.866455078125 95.9853515625 72.827392578125 96.9931640625 Q 73.788330078125 98.0009765625 75.319580078125 98.0009765625 Q 76.210205078125 98.0009765625 77.460205078125 97.6259765625 L 77.460205078125 96.6259765625 Q 76.335205078125 97.0478515625 75.553955078125 97.0478515625 Q 73.413330078125 97.0478515625 73.147705078125 94.5947265625 L 77.491455078125 94.5947265625 L 77.491455078125 94.2041015625 Q 77.491455078125 92.5634765625 76.811767578125 91.6806640625 Q 76.132080078125 90.7978515625 74.882080078125 90.7978515625 Z"
		fill="rgb(0,0,0)"
		stroke-linecap="square" 
		stroke-miterLimit="10.0" 
		stroke-width="0.0"
	/>
	<defs>
		<linearGradient id="Gradient1"
			gradientUnits="objectBoundingBox"
			spreadMethod="no_cycle" >
			<stop offset="0.0%" stop-color="rgb(153,153,153)" />
			<stop offset="100.0%" stop-color="rgb(229,229,229)" />
		</linearGradient>
		<linearGradient id="Gradient2"
			gradientUnits="objectBoundingBox"
			spreadMethod="no_cycle" >
			<stop offset="0.0%" stop-color="rgb(153,153,153)" />
			<stop offset="100.0%" stop-color="rgb(229,229,229)" />
		</linearGradient>
	</defs>
</svg>
