<?xml version="1.0" standalone="no"?>
<!DOCTYPE svg PUBLIC "-//W3C//DTD SVG 1.1//EN" 
	"http://www.w3.org/Graphics/SVG/1.1/DTD/svg11.dtd">
<svg viewBox="0.0 0.0 640.0 480.0"
	xmlns="http://www.w3.org/2000/svg" version="1.1">
	<!-- javafx.scene.shape.Rectangle -->
	<path d="M 11.399999976158142 -0.6000000238418579 L 68.59999692440033 -0.6000000238418579 Q 80.59999692440033 -0.6000000238418579 80.59999692440033 11.399999976158142 L 80.59999692440033 18.600000739097595 Q 80.59999692440033 30.600000739097595 68.59999692440033 30.600000739097595 L 11.399999976158142 30.600000739097595 Q -0.6000000238418579 30.600000739097595 -0.6000000238418579 18.600000739097595 L -0.6000000238418579 11.399999976158142 Q -0.6000000238418579 -0.6000000238418579 11.399999976158142 -0.6000000238418579 Z"
		transform="matrix(1.05,0.0,0.0,1.05,176.00000162720679,211.24999962449073)" 
		fill="url(#Gradient1)"
		stroke="rgb(127,127,127)"
		stroke-linecap="square" 
		stroke-miterLimit="10.0" 
		stroke-width="1.2" 
	/>
	<!-- javafx.scene.text.Text -->
	<path d="M 236.21580505371094 225.743896484375 Q 237.72518920898438 225.743896484375 237.72518920898438 227.76187133789062 L 234.52597045898438 227.76187133789062 Q 234.70643615722656 225.743896484375 236.21580505371094 225.743896484375 ZM 207.16033935546875 225.743896484375 Q 209.21112060546875 225.743896484375 209.21112060546875 228.532958984375 Q 209.21112060546875 231.3384246826172 207.12753295898438 231.3384246826172 Q 205.09315490722656 231.3384246826172 205.09315490722656 228.532958984375 Q 205.09315490722656 225.743896484375 207.16033935546875 225.743896484375 ZM 224.70529174804688 224.759521484375 Q 223.22872924804688 224.759521484375 222.44122314453125 226.28530883789062 L 222.44122314453125 224.923583984375 L 221.12872314453125 224.923583984375 L 221.12872314453125 232.1587371826172 L 222.44122314453125 232.1587371826172 L 222.44122314453125 227.384521484375 Q 223.27793884277344 225.907958984375 224.52481079101562 225.907958984375 Q 224.78732299804688 225.907958984375 225.13185119628906 226.02279663085938 L 225.13185119628906 224.79232788085938 Q 224.90216064453125 224.759521484375 224.70529174804688 224.759521484375 ZM 199.59500122070312 224.759521484375 Q 198.43016052246094 224.759521484375 197.75750732421875 225.30093383789062 Q 197.08485412597656 225.8423309326172 197.08485412597656 226.7938995361328 Q 197.08485412597656 228.122802734375 198.79110717773438 228.82827758789062 L 199.56219482421875 229.15640258789062 Q 200.59579467773438 229.599365234375 200.59579467773438 230.2720184326172 Q 200.59579467773438 230.7313995361328 200.22665405273438 231.034912109375 Q 199.85751342773438 231.3384246826172 199.28329467773438 231.3384246826172 Q 198.33172607421875 231.3384246826172 197.05203247070312 230.69857788085938 L 197.05203247070312 231.9126434326172 Q 198.33172607421875 232.3227996826172 199.23406982421875 232.3227996826172 Q 200.41531372070312 232.3227996826172 201.16180419921875 231.7075653076172 Q 201.90829467773438 231.0923309326172 201.90829467773438 230.14077758789062 Q 201.90829467773438 229.38607788085938 201.46531677246094 228.8856964111328 Q 201.02235412597656 228.3852996826172 199.95594787597656 227.92593383789062 L 199.31610107421875 227.66342163085938 Q 198.34812927246094 227.25326538085938 198.34812927246094 226.6626434326172 Q 198.34812927246094 225.743896484375 199.62782287597656 225.743896484375 Q 200.26766967773438 225.743896484375 201.36688232421875 226.072021484375 L 201.36688232421875 224.97280883789062 L 201.08798217773438 224.923583984375 Q 200.20204162597656 224.759521484375 199.59500122070312 224.759521484375 ZM 207.16033935546875 224.759521484375 Q 205.55252075195312 224.759521484375 204.62557983398438 225.77670288085938 Q 203.69862365722656 226.7938995361328 203.69862365722656 228.532958984375 Q 203.69862365722656 230.2720184326172 204.62557983398438 231.2974090576172 Q 205.55252075195312 232.3227996826172 207.11111450195312 232.3227996826172 Q 208.73533630371094 232.3227996826172 209.67050170898438 231.31381225585938 Q 210.60565185546875 230.30484008789062 210.60565185546875 228.532958984375 Q 210.60565185546875 226.7938995361328 209.67869567871094 225.77670288085938 Q 208.75173950195312 224.759521484375 207.16033935546875 224.759521484375 ZM 212.57542419433594 224.923583984375 L 212.57542419433594 230.12435913085938 Q 212.57542419433594 231.12515258789062 213.13323974609375 231.72396850585938 Q 213.69105529785156 232.3227996826172 214.64260864257812 232.3227996826172 Q 216.13558959960938 232.3227996826172 217.18557739257812 230.79702758789062 L 217.18557739257812 232.1587371826172 L 218.49807739257812 232.1587371826172 L 218.49807739257812 224.923583984375 L 217.18557739257812 224.923583984375 L 217.18557739257812 229.6157684326172 Q 216.11917114257812 231.19076538085938 214.92152404785156 231.19076538085938 Q 214.36370849609375 231.19076538085938 214.12582397460938 230.8462371826172 Q 213.88792419433594 230.501708984375 213.88792419433594 229.6977996826172 L 213.88792419433594 224.923583984375 ZM 229.76559448242188 224.759521484375 Q 228.05934143066406 224.759521484375 227.09957885742188 225.743896484375 Q 226.13980102539062 226.728271484375 226.13980102539062 228.50015258789062 Q 226.13980102539062 230.1571807861328 227.10777282714844 231.239990234375 Q 228.07574462890625 232.3227996826172 229.53590393066406 232.3227996826172 Q 230.47105407714844 232.3227996826172 231.73434448242188 231.94546508789062 L 231.73434448242188 230.8134307861328 Q 230.78277587890625 231.27279663085938 229.88043212890625 231.27279663085938 Q 228.87965393066406 231.27279663085938 228.24801635742188 230.5181121826172 Q 227.61636352539062 229.763427734375 227.61636352539062 228.532958984375 Q 227.61636352539062 227.2860870361328 228.23159790039062 226.523193359375 Q 228.84683227539062 225.7602996826172 229.84762573242188 225.7602996826172 Q 230.55308532714844 225.7602996826172 231.65231323242188 226.0884246826172 L 231.65231323242188 224.9892120361328 Q 230.61871337890625 224.759521484375 229.76559448242188 224.759521484375 ZM 236.29783630371094 224.759521484375 Q 234.91970825195312 224.759521484375 234.02557373046875 225.8095245361328 Q 233.13143920898438 226.85952758789062 233.13143920898438 228.50015258789062 Q 233.13143920898438 230.20639038085938 234.14041137695312 231.2646026611328 Q 235.14939880371094 232.3227996826172 236.75721740722656 232.3227996826172 Q 237.69236755371094 232.3227996826172 239.00486755371094 231.92904663085938 L 239.00486755371094 230.87905883789062 Q 237.82362365722656 231.322021484375 237.00331115722656 231.322021484375 Q 234.75564575195312 231.322021484375 234.47674560546875 228.74624633789062 L 239.03768920898438 228.74624633789062 L 239.03768920898438 228.33609008789062 Q 239.03768920898438 226.61343383789062 238.32400512695312 225.6864776611328 Q 237.61033630371094 224.759521484375 236.29783630371094 224.759521484375 Z"
		fill="rgb(0,0,0)"
		stroke-linecap="square" 
		stroke-miterLimit="10.0" 
		stroke-width="0.0"
	/>
	<!-- javafx.scene.shape.Rectangle -->
	<path d="M 11.399999976158142 -0.6000000238418579 L 68.59999692440033 -0.6000000238418579 Q 80.59999692440033 -0.6000000238418579 80.59999692440033 11.399999976158142 L 80.59999692440033 18.600000739097595 Q 80.59999692440033 30.600000739097595 68.59999692440033 30.600000739097595 L 11.399999976158142 30.600000739097595 Q -0.6000000238418579 30.600000739097595 -0.6000000238418579 18.600000739097595 L -0.6000000238418579 11.399999976158142 Q -0.6000000238418579 -0.6000000238418579 11.399999976158142 -0.6000000238418579 Z"
		transform="matrix(1.0,0.0,0.0,1.0,367.00000154972076,281.99999964237213)" 
		fill="url(#Gradient2)"
		stroke="rgb(127,127,127)"
		stroke-linecap="square" 
		stroke-miterLimit="10.0" 
		stroke-width="1.2" 
	/>
	<!-- javafx.scene.text.Text -->
	<path d="M 417.321533203125 295.8037109375 Q 418.759033203125 295.8037109375 418.759033203125 297.7255859375 L 415.712158203125 297.7255859375 Q 415.884033203125 295.8037109375 417.321533203125 295.8037109375 ZM 409.449951171875 295.8037109375 Q 410.418701171875 295.8037109375 411.246826171875 296.6630859375 L 411.246826171875 299.5224609375 Q 410.293701171875 300.6630859375 409.199951171875 300.6630859375 Q 407.606201171875 300.6630859375 407.606201171875 298.3974609375 Q 407.606201171875 297.1943359375 408.098388671875 296.4990234375 Q 408.590576171875 295.8037109375 409.449951171875 295.8037109375 ZM 397.279541015625 298.5537109375 L 397.701416015625 298.5693359375 L 397.701416015625 300.3505859375 Q 396.857666015625 301.0537109375 396.076416015625 301.0537109375 Q 395.623291015625 301.0537109375 395.302978515625 300.7412109375 Q 394.982666015625 300.4287109375 394.982666015625 299.9755859375 Q 394.982666015625 299.3349609375 395.615478515625 298.9443359375 Q 396.248291015625 298.5537109375 397.279541015625 298.5537109375 ZM 404.911865234375 294.8662109375 Q 403.505615234375 294.8662109375 402.755615234375 296.3193359375 L 402.755615234375 295.0224609375 L 401.505615234375 295.0224609375 L 401.505615234375 301.9130859375 L 402.755615234375 301.9130859375 L 402.755615234375 297.3662109375 Q 403.552490234375 295.9599609375 404.739990234375 295.9599609375 Q 404.989990234375 295.9599609375 405.318115234375 296.0693359375 L 405.318115234375 294.8974609375 Q 405.099365234375 294.8662109375 404.911865234375 294.8662109375 ZM 390.760986328125 293.6474609375 L 389.510986328125 293.7724609375 L 389.510986328125 295.0224609375 L 388.651611328125 295.0224609375 L 388.651611328125 295.9599609375 L 389.510986328125 295.9599609375 L 389.510986328125 300.0068359375 Q 389.510986328125 300.9755859375 390.050048828125 301.5224609375 Q 390.589111328125 302.0693359375 391.526611328125 302.0693359375 Q 391.964111328125 302.0693359375 392.542236328125 301.9130859375 L 392.542236328125 301.0537109375 Q 392.182861328125 301.1318359375 391.932861328125 301.1318359375 Q 390.760986328125 301.1318359375 390.760986328125 299.7724609375 L 390.760986328125 295.9599609375 L 392.573486328125 295.9599609375 L 392.573486328125 295.0224609375 L 390.760986328125 295.0224609375 L 390.760986328125 293.6474609375 ZM 396.701416015625 294.8662109375 Q 395.592041015625 294.8662109375 394.326416015625 295.3818359375 L 394.326416015625 296.4130859375 Q 395.482666015625 295.8037109375 396.467041015625 295.8037109375 Q 397.701416015625 295.8037109375 397.701416015625 297.0068359375 L 397.701416015625 297.8349609375 L 397.404541015625 297.8349609375 Q 395.623291015625 297.8349609375 394.677978515625 298.4443359375 Q 393.732666015625 299.0537109375 393.732666015625 300.1787109375 Q 393.732666015625 300.9912109375 394.295166015625 301.5302734375 Q 394.857666015625 302.0693359375 395.717041015625 302.0693359375 Q 396.763916015625 302.0693359375 397.888916015625 301.0380859375 Q 398.123291015625 302.0693359375 398.998291015625 302.0693359375 Q 399.513916015625 302.0693359375 399.935791015625 301.8662109375 L 399.842041015625 301.1787109375 Q 399.685791015625 301.1943359375 399.607666015625 301.1943359375 Q 398.951416015625 301.1943359375 398.951416015625 300.1318359375 L 398.951416015625 297.0068359375 Q 398.951416015625 295.9130859375 398.404541015625 295.3896484375 Q 397.857666015625 294.8662109375 396.701416015625 294.8662109375 ZM 417.399658203125 294.8662109375 Q 416.087158203125 294.8662109375 415.235595703125 295.8662109375 Q 414.384033203125 296.8662109375 414.384033203125 298.4287109375 Q 414.384033203125 300.0537109375 415.344970703125 301.0615234375 Q 416.305908203125 302.0693359375 417.837158203125 302.0693359375 Q 418.727783203125 302.0693359375 419.977783203125 301.6943359375 L 419.977783203125 300.6943359375 Q 418.852783203125 301.1162109375 418.071533203125 301.1162109375 Q 415.930908203125 301.1162109375 415.665283203125 298.6630859375 L 420.009033203125 298.6630859375 L 420.009033203125 298.2724609375 Q 420.009033203125 296.6318359375 419.329345703125 295.7490234375 Q 418.649658203125 294.8662109375 417.399658203125 294.8662109375 ZM 423.470458984375 293.6474609375 L 422.220458984375 293.7724609375 L 422.220458984375 295.0224609375 L 421.361083984375 295.0224609375 L 421.361083984375 295.9599609375 L 422.220458984375 295.9599609375 L 422.220458984375 300.0068359375 Q 422.220458984375 300.9755859375 422.759521484375 301.5224609375 Q 423.298583984375 302.0693359375 424.236083984375 302.0693359375 Q 424.673583984375 302.0693359375 425.251708984375 301.9130859375 L 425.251708984375 301.0537109375 Q 424.892333984375 301.1318359375 424.642333984375 301.1318359375 Q 423.470458984375 301.1318359375 423.470458984375 299.7724609375 L 423.470458984375 295.9599609375 L 425.282958984375 295.9599609375 L 425.282958984375 295.0224609375 L 423.470458984375 295.0224609375 L 423.470458984375 293.6474609375 ZM 409.262451171875 294.8662109375 Q 407.949951171875 294.8662109375 407.114013671875 295.8583984375 Q 406.278076171875 296.8505859375 406.278076171875 298.4287109375 Q 406.278076171875 299.9443359375 407.012451171875 300.8505859375 Q 407.746826171875 301.7568359375 408.981201171875 301.7568359375 Q 410.559326171875 301.7568359375 411.246826171875 300.3037109375 L 411.246826171875 301.3974609375 Q 411.246826171875 303.6318359375 409.137451171875 303.6318359375 Q 408.074951171875 303.6318359375 406.996826171875 303.1162109375 L 406.856201171875 304.2099609375 Q 407.949951171875 304.5693359375 409.168701171875 304.5693359375 Q 410.887451171875 304.5693359375 411.699951171875 303.7099609375 Q 412.168701171875 303.2099609375 412.340576171875 302.4287109375 Q 412.512451171875 301.6474609375 412.512451171875 300.0380859375 L 412.512451171875 295.0224609375 L 411.246826171875 295.0224609375 L 411.246826171875 295.8037109375 Q 410.418701171875 294.8662109375 409.262451171875 294.8662109375 Z"
		fill="rgb(0,0,0)"
		stroke-linecap="square" 
		stroke-miterLimit="10.0" 
		stroke-width="0.0"
	/>
	<!-- de.itemis.javafx.diagram.XConnection -->
	<path d="M 261.04998779296875 227.0 L 366.0 297.0"
		fill="gray"
		stroke="rgb(0,0,0)"
		stroke-linecap="square" 
		stroke-miterLimit="10.0" 
		stroke-width="1.5" 
	/>
	<!-- de.itemis.javafx.diagram.XConnectionLabel -->
	<path d="M 308.7034912109375 244.34103393554688 L 303.14599609375 252.67330932617188 L 304.1858825683594 253.36691284179688 L 309.743408203125 245.03463745117188 L 308.7034912109375 244.34103393554688 ZM 308.9232177734375 253.0027313232422 Q 308.9571533203125 253.0027313232422 308.991943359375 253.0039520263672 Q 309.7351379394531 253.03012084960938 310.5930480957031 253.6023406982422 L 310.93536376953125 253.84942626953125 L 309.9469909667969 255.331298828125 Q 309.7152404785156 255.3560791015625 309.5033874511719 255.3560791015625 Q 308.71697998046875 255.3560791015625 308.2049560546875 255.0145721435547 Q 307.8279724121094 254.7631378173828 307.7348937988281 254.32542419433594 Q 307.6418151855469 253.88771057128906 307.89324951171875 253.5107421875 Q 308.2320861816406 253.0027313232422 308.9232177734375 253.0027313232422 ZM 309.89630126953125 249.32492065429688 L 309.3240661621094 250.18284606933594 Q 310.6241149902344 250.31747436523438 311.44305419921875 250.8636932373047 Q 312.469970703125 251.5486297607422 311.8023681640625 252.54954528808594 L 311.3428649902344 253.2384796142578 L 311.09588623046875 253.07374572753906 Q 309.614013671875 252.08535766601562 308.48944091796875 252.06777954101562 Q 308.4687194824219 252.0674591064453 308.4481506347656 252.0674591064453 Q 307.3533630371094 252.0674591064453 306.7406311035156 252.98611450195312 Q 306.289794921875 253.6620635986328 306.4586181640625 254.42263793945312 Q 306.6274719238281 255.1832275390625 307.3424072265625 255.6600799560547 Q 307.9635009765625 256.0743408203125 308.9086608886719 256.0743408203125 Q 309.2888488769531 256.0743408203125 309.72149658203125 256.0072937011719 L 309.72149658203125 256.0072937011719 Q 309.34423828125 256.9952697753906 310.0721740722656 257.4808044433594 Q 310.5011291503906 257.76690673828125 310.9648132324219 257.8320007324219 L 311.268310546875 257.2080383300781 Q 311.129638671875 257.13433837890625 311.0646667480469 257.0909729003906 Q 310.5187072753906 256.7268371582031 311.1082763671875 255.84292602539062 L 312.84228515625 253.24314880371094 Q 313.4491882324219 252.33322143554688 313.28466796875 251.5943145751953 Q 313.1201477050781 250.8553924560547 312.1582336425781 250.21380615234375 Q 311.2353210449219 249.59823608398438 309.89630126953125 249.32492065429688 ZM 317.0421447753906 255.27276611328125 Q 317.77191162109375 255.27276611328125 318.29083251953125 255.61888122558594 Q 319.6167297363281 256.50323486328125 318.27288818359375 258.51806640625 Q 317.2101135253906 260.1114501953125 316.16241455078125 260.1114501953125 Q 315.705810546875 260.1114501953125 315.2520751953125 259.8088073730469 Q 314.5241394042969 259.3232727050781 314.195068359375 258.07080078125 L 315.955078125 255.43202209472656 Q 316.547119140625 255.27276611328125 317.0421447753906 255.27276611328125 ZM 317.80230712890625 250.4097900390625 L 312.2014465332031 258.80706787109375 L 313.1113586425781 259.4139709472656 L 313.71820068359375 258.7857360839844 Q 313.8739318847656 260.0165100097656 314.8878479003906 260.6927795410156 Q 315.59161376953125 261.16217041015625 316.35699462890625 261.16217041015625 Q 316.79327392578125 261.16217041015625 317.2496032714844 261.0096435546875 Q 318.5064392089844 260.5895690917969 319.46014404296875 259.1596984863281 Q 320.3358154296875 257.8468017578125 320.24072265625 256.69403076171875 Q 320.1456298828125 255.54129028320312 319.1187438964844 254.85635375976562 Q 318.4461975097656 254.40777587890625 317.7309265136719 254.40777587890625 Q 317.07757568359375 254.40777587890625 316.3885803222656 254.78207397460938 L 318.8421936035156 251.1033935546875 L 317.80230712890625 250.4097900390625 ZM 323.599853515625 259.2496643066406 Q 324.0160217285156 259.2496643066406 324.4305419921875 259.5261535644531 Q 325.62646484375 260.32379150390625 324.5600280761719 261.92266845703125 L 322.0252685546875 260.23199462890625 Q 322.8154296875 259.2496643066406 323.599853515625 259.2496643066406 ZM 323.4766845703125 258.30194091796875 Q 323.0779724121094 258.30194091796875 322.6605224609375 258.4206848144531 Q 321.397216796875 258.7801208496094 320.53021240234375 260.0799865722656 Q 319.6285095214844 261.431884765625 319.86871337890625 262.80352783203125 Q 320.10894775390625 264.1751403808594 321.3828430175781 265.0248107910156 Q 322.123779296875 265.5190124511719 323.37176513671875 265.900634765625 L 323.9266357421875 265.0687255859375 Q 322.7566223144531 264.7954406738281 322.106689453125 264.3619384765625 Q 320.3258361816406 263.17413330078125 321.466064453125 260.9859313964844 L 321.466064453125 260.9859313964844 L 325.0797424316406 263.3962097167969 L 325.2965087890625 263.07122802734375 Q 326.20684814453125 261.7063293457031 326.1312561035156 260.5947570800781 Q 326.0556640625 259.4831848144531 325.0157470703125 258.7895812988281 Q 324.2846374511719 258.30194091796875 323.4766845703125 258.30194091796875 ZM 330.6346130371094 258.96875 L 325.0771179199219 267.301025390625 L 326.1170349121094 267.99462890625 L 331.6745300292969 259.662353515625 L 330.6346130371094 258.96875 Z"
		fill="rgb(0,0,0)"
		stroke-linecap="square" 
		stroke-miterLimit="10.0" 
		stroke-width="0.0"
	/>
	<defs>
		<linearGradient id="Gradient1"
			gradientUnits="objectBoundingBox"
			spreadMethod="no_cycle" >
			<stop offset="0.0%" stop-color="rgb(153,153,153)" />
			<stop offset="100.0%" stop-color="rgb(229,229,229)" />
		</linearGradient>
		<linearGradient id="Gradient2"
			gradientUnits="objectBoundingBox"
			spreadMethod="no_cycle" >
			<stop offset="0.0%" stop-color="rgb(153,153,153)" />
			<stop offset="100.0%" stop-color="rgb(229,229,229)" />
		</linearGradient>
	</defs>
</svg>
