<?xml version="1.0" standalone="no"?>
<!DOCTYPE svg PUBLIC "-//W3C//DTD SVG 1.1//EN" 
	"http://www.w3.org/Graphics/SVG/1.1/DTD/svg11.dtd">
<svg viewBox="0.0 0.0 640.0 480.0"
	xmlns="http://www.w3.org/2000/svg" version="1.1">
	<!-- javafx.scene.shape.Rectangle -->
	<path d="M 11.399999976158142 -0.6000000238418579 L 68.59999692440033 -0.6000000238418579 Q 80.59999692440033 -0.6000000238418579 80.59999692440033 11.399999976158142 L 80.59999692440033 18.600000739097595 Q 80.59999692440033 30.600000739097595 68.59999692440033 30.600000739097595 L 11.399999976158142 30.600000739097595 Q -0.6000000238418579 30.600000739097595 -0.6000000238418579 18.600000739097595 L -0.6000000238418579 11.399999976158142 Q -0.6000000238418579 -0.6000000238418579 11.399999976158142 -0.6000000238418579 Z"
		transform="matrix(1.621774407510107,-0.01935252758966752,0.01935252758966752,1.621774407510107,247.62650358516237,160.46517618616568)" 
		fill="url(#Gradient1)"
		stroke="rgb(127,127,127)"
		stroke-linecap="square" 
		stroke-miterLimit="10.0" 
		stroke-width="1.2" 
	/>
	<!-- javafx.scene.text.Text -->
	<path d="M 340.94085693359375 181.74160766601562 Q 343.2314147949219 181.74160766601562 343.2682800292969 184.83087158203125 L 338.3269348144531 184.88983154296875 Q 338.5684814453125 181.76966857910156 340.8997802734375 181.74185180664062 Q 340.92041015625 181.74160766601562 340.94085693359375 181.74160766601562 ZM 296.0771179199219 182.2770233154297 Q 299.19024658203125 182.2770233154297 299.2411804199219 186.5474090576172 Q 299.2928771972656 190.88058471679688 296.0746765136719 190.9189910888672 Q 296.0477294921875 190.9193115234375 296.02099609375 190.9193115234375 Q 292.9320373535156 190.9193115234375 292.88079833984375 186.62330627441406 Q 292.8293762207031 182.31546020507812 296.0222473144531 182.27735900878906 Q 296.0498046875 182.2770233154297 296.0771179199219 182.2770233154297 ZM 341.0760803222656 180.21951293945312 Q 341.0423278808594 180.21951293945312 341.0083312988281 180.2199249267578 Q 338.8797607421875 180.2453155517578 337.51806640625 181.88357543945312 Q 336.1563720703125 183.52183532714844 336.1866149902344 186.05584716796875 Q 336.21807861328125 188.6912384033203 337.7959899902344 190.3070831298828 Q 339.34552001953125 191.89382934570312 341.76812744140625 191.89382934570312 Q 341.81256103515625 191.89382934570312 341.8572692871094 191.89329528808594 Q 343.3016662597656 191.87606811523438 345.3216247558594 191.2436981201172 L 345.3022766113281 189.62193298339844 Q 343.4859313964844 190.32789611816406 342.21893310546875 190.34300231933594 Q 342.18310546875 190.3434295654297 342.1476135253906 190.3434295654297 Q 338.74237060546875 190.3434295654297 338.2690734863281 186.41116333007812 L 345.3136291503906 186.3271026611328 L 345.30609130859375 185.69358825683594 Q 345.2743225097656 183.03286743164062 344.1549377441406 181.6143035888672 Q 343.0543212890625 180.21951293945312 341.0760803222656 180.21951293945312 ZM 323.1474609375 180.43331909179688 Q 323.1251525878906 180.43331909179688 323.10308837890625 180.43357849121094 Q 320.8224792480469 180.46080017089844 319.63427734375 182.8319549560547 L 319.6091613769531 180.7287139892578 L 317.58197021484375 180.75289916992188 L 317.7153015136719 191.92794799804688 L 319.7425231933594 191.90374755859375 L 319.654541015625 184.52975463867188 Q 320.919677734375 182.23370361328125 322.84552001953125 182.21072387695312 Q 322.8566589355469 182.21058654785156 322.867919921875 182.21058654785156 Q 323.2656555175781 182.21058654785156 323.78521728515625 182.37692260742188 L 323.7625427246094 180.4763946533203 Q 323.4329528808594 180.43331909179688 323.1474609375 180.43331909179688 ZM 331.0375061035156 180.33961486816406 Q 330.97796630859375 180.33961486816406 330.9189758300781 180.34031677246094 Q 328.2835998535156 180.37176513671875 326.8193359375 181.9098663330078 Q 325.3550720214844 183.44796752929688 325.3877258300781 186.18470764160156 Q 325.41827392578125 188.74407958984375 326.93328857421875 190.39869689941406 Q 328.4241027832031 192.02682495117188 330.63165283203125 192.02682495117188 Q 330.66754150390625 192.02682495117188 330.70361328125 192.02639770507812 Q 332.14801025390625 192.0091552734375 334.0922546386719 191.40304565429688 L 334.0713806152344 189.65457153320312 Q 332.610107421875 190.3816375732422 331.2164001464844 190.3982696533203 Q 331.19207763671875 190.3985595703125 331.16790771484375 190.3985595703125 Q 329.65509033203125 190.3985595703125 328.68115234375 189.26271057128906 Q 327.6916198730469 188.10870361328125 327.6689453125 186.2081756591797 Q 327.6459655761719 184.28231811523438 328.5821838378906 183.09266662597656 Q 329.51837158203125 181.9029998779297 331.0641174316406 181.88455200195312 Q 331.09246826171875 181.88421630859375 331.1212463378906 181.88421630859375 Q 332.1980895996094 181.88421630859375 333.85760498046875 182.35809326171875 L 333.83734130859375 180.66030883789062 Q 332.3083190917969 180.33961486816406 331.0375061035156 180.33961486816406 ZM 313.518798828125 180.8013916015625 L 311.4915771484375 180.82557678222656 L 311.57806396484375 188.07289123535156 Q 309.9599914550781 190.52520751953125 308.1101379394531 190.54727172851562 Q 308.0936584472656 190.54747009277344 308.077392578125 190.54747009277344 Q 307.241455078125 190.54747009277344 306.8747863769531 190.02980041503906 Q 306.5010070800781 189.5020294189453 306.4862060546875 188.26036071777344 L 306.398193359375 180.8863525390625 L 304.3710021972656 180.91055297851562 L 304.4668273925781 188.9434051513672 Q 304.48529052734375 190.48915100097656 305.3578796386719 191.40379333496094 Q 306.2140808105469 192.3012237548828 307.6451110839844 192.3012237548828 Q 307.67254638671875 192.3012237548828 307.7002258300781 192.30088806152344 Q 310.0061950683594 192.27337646484375 311.599853515625 189.8973846435547 L 311.62493896484375 192.00062561035156 L 313.65216064453125 191.97642517089844 L 313.518798828125 180.8013916015625 ZM 296.0948791503906 180.75640869140625 Q 296.0496826171875 180.75640869140625 296.0041198730469 180.7569580078125 Q 293.520751953125 180.78659057617188 292.1077880859375 182.37477111816406 Q 290.69482421875 183.9629364013672 290.72686767578125 186.6490020751953 Q 290.7589111328125 189.33506774902344 292.20953369140625 190.90174865722656 Q 293.634033203125 192.44021606445312 295.9810791015625 192.44021606445312 Q 296.02410888671875 192.44021606445312 296.0674743652344 192.439697265625 Q 298.576171875 192.40977478027344 300.001953125 190.8341064453125 Q 301.4277648925781 189.25845336914062 301.3951110839844 186.52169799804688 Q 301.363037109375 183.8356475830078 299.9125671386719 182.28163146972656 Q 298.4889831542969 180.75640869140625 296.0948791503906 180.75640869140625 ZM 284.4044494628906 180.89588928222656 Q 284.361328125 180.89588928222656 284.319091796875 180.89639282226562 Q 282.5199279785156 180.91786193847656 281.490966796875 181.7664794921875 Q 280.4620056152344 182.6151123046875 280.4795227050781 184.0848388671875 Q 280.5040283203125 186.1374053955078 283.15240478515625 187.19558715820312 L 284.3494567871094 187.68817138671875 Q 285.95404052734375 188.3533172607422 285.9664611816406 189.3922576904297 Q 285.97491455078125 190.10179138183594 285.41033935546875 190.57737731933594 Q 284.8457946777344 191.052978515625 283.9588928222656 191.06356811523438 Q 283.9326477050781 191.0638885498047 283.90625 191.0638885498047 Q 282.45367431640625 191.0638885498047 280.5008239746094 190.11642456054688 L 280.5008239746094 190.11642456054688 L 280.523193359375 191.99159240722656 Q 282.4546203613281 192.5853271484375 283.82659912109375 192.5853271484375 Q 283.864013671875 192.5853271484375 283.9010009765625 192.5848846435547 Q 285.7254943847656 192.5631103515625 286.8671569824219 191.59909057617188 Q 288.0087890625 190.6350860595703 287.9912414550781 189.16534423828125 Q 287.9773254394531 187.99969482421875 287.283935546875 187.2349853515625 Q 286.59051513671875 186.47027587890625 284.9349365234375 185.7803955078125 L 283.94183349609375 185.38674926757812 Q 282.439208984375 184.77108764648438 282.4283142089844 183.8588409423828 Q 282.411376953125 182.43978881835938 284.3879089355469 182.41619873046875 Q 284.4112854003906 182.41592407226562 284.4350891113281 182.41592407226562 Q 285.41650390625 182.41592407226562 287.08001708984375 182.8909454345703 L 287.0597839355469 181.1931610107422 L 286.6280822753906 181.1222686767578 Q 285.3184814453125 180.89588928222656 284.4044494628906 180.89588928222656 Z"
		fill="rgb(0,0,0)"
		stroke-linecap="square" 
		stroke-miterLimit="10.0" 
		stroke-width="0.0"
	/>
	<!-- javafx.scene.shape.Rectangle -->
	<path d="M 11.399999976158142 -0.6000000238418579 L 68.59999692440033 -0.6000000238418579 Q 80.59999692440033 -0.6000000238418579 80.59999692440033 11.399999976158142 L 80.59999692440033 18.600000739097595 Q 80.59999692440033 30.600000739097595 68.59999692440033 30.600000739097595 L 11.399999976158142 30.600000739097595 Q -0.6000000238418579 30.600000739097595 -0.6000000238418579 18.600000739097595 L -0.6000000238418579 11.399999976158142 Q -0.6000000238418579 -0.6000000238418579 11.399999976158142 -0.6000000238418579 Z"
		transform="matrix(1.621774407510107,-0.01935252758966752,0.01935252758966752,1.621774407510107,251.84151668968798,377.76359426493036)" 
		fill="url(#Gradient2)"
		stroke="rgb(127,127,127)"
		stroke-linecap="square" 
		stroke-miterLimit="10.0" 
		stroke-width="1.2" 
	/>
	<!-- javafx.scene.text.Text -->
	<path d="M 333.7598571777344 399.1759948730469 Q 336.05047607421875 399.1759948730469 336.0873107910156 402.2652893066406 L 331.1459655761719 402.3242492675781 Q 331.38751220703125 399.2040710449219 333.71881103515625 399.1762390136719 Q 333.7394104003906 399.1759948730469 333.7598571777344 399.1759948730469 ZM 320.9949951171875 399.3283386230469 Q 322.542236328125 399.3283386230469 323.8836669921875 400.6875305175781 L 323.9389953613281 405.3247985839844 Q 322.4153137207031 407.19305419921875 320.6414794921875 407.2142333984375 Q 320.6199645996094 407.2144775390625 320.5986022949219 407.2144775390625 Q 318.0564270019531 407.2144775390625 318.012939453125 403.57073974609375 Q 317.9896545410156 401.6195373535156 318.7744140625 400.4823913574219 Q 319.5591735839844 399.34521484375 320.952880859375 399.3285827636719 Q 320.9739685058594 399.3283386230469 320.9949951171875 399.3283386230469 ZM 301.2684631347656 404.02398681640625 L 301.95294189453125 404.0411682128906 L 301.9874267578125 406.9299621582031 Q 300.6326599121094 408.08660888671875 299.3656311035156 408.1017150878906 Q 299.3529968261719 408.10186767578125 299.3404235839844 408.10186767578125 Q 298.6217346191406 408.10186767578125 298.1052551269531 407.60986328125 Q 297.5797424316406 407.1092834472656 297.5709533691406 406.3743896484375 Q 297.5585632324219 405.33544921875 298.5772705078125 404.689697265625 Q 299.59600830078125 404.0439453125 301.2684631347656 404.02398681640625 ZM 343.6492614746094 395.560302734375 L 341.6244812011719 395.7872009277344 L 341.6486511230469 397.8144226074219 L 340.25494384765625 397.8310546875 L 340.2731018066406 399.3514709472656 L 341.66680908203125 399.3348388671875 L 341.7451171875 405.8979797363281 Q 341.76385498046875 407.46905517578125 342.648681640625 408.34552001953125 Q 343.51556396484375 409.2042236328125 344.9924621582031 409.2042236328125 Q 345.0230712890625 409.2042236328125 345.0539245605469 409.203857421875 Q 345.7634582519531 409.1954040527344 346.6980285644531 408.9308166503906 L 346.681396484375 407.537109375 Q 346.1000671386719 407.6707458496094 345.6946105957031 407.67559814453125 Q 345.6752624511719 407.67584228515625 345.6560974121094 407.67584228515625 Q 343.7938232421875 407.67584228515625 343.7677917480469 405.4936828613281 L 343.69403076171875 399.3106689453125 L 346.63348388671875 399.27557373046875 L 346.6153564453125 397.7551574707031 L 343.6758728027344 397.7902526855469 L 343.6492614746094 395.560302734375 ZM 333.8951416015625 397.6539306640625 Q 333.86138916015625 397.6539306640625 333.827392578125 397.6543273925781 Q 331.69879150390625 397.6797180175781 330.3371276855469 399.3179931640625 Q 328.9754333496094 400.95623779296875 329.00567626953125 403.4902648925781 Q 329.037109375 406.1256408691406 330.61505126953125 407.7414855957031 Q 332.16455078125 409.3282165527344 334.587158203125 409.3282165527344 Q 334.631591796875 409.3282165527344 334.6763000488281 409.32769775390625 Q 336.1206970214844 409.3104553222656 338.1406555175781 408.6781005859375 L 338.1213073730469 407.05633544921875 Q 336.30499267578125 407.7622985839844 335.0379638671875 407.77740478515625 Q 335.00213623046875 407.77783203125 334.96661376953125 407.77783203125 Q 331.5614013671875 407.77783203125 331.0881042480469 403.8455505371094 L 338.1326904296875 403.7615051269531 L 338.1251220703125 403.12799072265625 Q 338.0933837890625 400.46728515625 336.9739990234375 399.0487060546875 Q 335.8733825683594 397.6539306640625 333.8951416015625 397.6539306640625 ZM 313.619384765625 397.8957214355469 Q 313.5970764160156 397.8957214355469 313.57501220703125 397.89599609375 Q 311.29437255859375 397.9232177734375 310.1061706542969 400.29437255859375 L 310.0810852050781 398.1911315917969 L 308.0538635253906 398.21533203125 L 308.18719482421875 409.3903503417969 L 310.21441650390625 409.3661804199219 L 310.1264343261719 401.9921569824219 Q 311.3915710449219 399.69610595703125 313.3174133300781 399.6731262207031 Q 313.3285217285156 399.6730041503906 313.3397521972656 399.6730041503906 Q 313.7375183105469 399.6730041503906 314.25714111328125 399.8393249511719 L 314.23443603515625 397.9388122558594 Q 313.90484619140625 397.8957214355469 313.619384765625 397.8957214355469 ZM 300.3564453125 398.0543212890625 Q 300.30828857421875 398.0543212890625 300.2594909667969 398.0549011230469 Q 298.4603576660156 398.07635498046875 296.4177551269531 398.93707275390625 L 296.4377136230469 400.6095275878906 Q 298.3011169433594 399.598876953125 299.8975524902344 399.579833984375 Q 299.9217834472656 399.5795593261719 299.9457092285156 399.5795593261719 Q 301.8996887207031 399.5795593261719 301.9226989746094 401.50714111328125 L 301.938720703125 402.8501892089844 L 301.457275390625 402.8559265136719 Q 298.5684814453125 402.8904113769531 297.04718017578125 403.89697265625 Q 295.5259094238281 404.9035339355469 295.54766845703125 406.72802734375 Q 295.5633850097656 408.04571533203125 296.486083984375 408.9090576171875 Q 297.3913269042969 409.7560729980469 298.74993896484375 409.7560729980469 Q 298.776123046875 409.7560729980469 298.8024597167969 409.7557678222656 Q 300.5002746582031 409.73553466796875 302.3048095703125 408.0412902832031 Q 302.7008361816406 409.6924743652344 304.0954895019531 409.6924743652344 Q 304.1096496582031 409.6924743652344 304.1239013671875 409.6922912597656 Q 304.96014404296875 409.68231201171875 305.6404113769531 409.3447265625 L 305.4750671386719 408.2315673828125 Q 305.2219543457031 408.2599182128906 305.0952453613281 408.2614440917969 Q 305.08746337890625 408.26153564453125 305.0797424316406 408.26153564453125 Q 304.03082275390625 408.26153564453125 304.0104064941406 406.5509948730469 L 303.9499206542969 401.48297119140625 Q 303.9287414550781 399.7091369628906 303.0317077636719 398.8708190917969 Q 302.15802001953125 398.0543212890625 300.3564453125 398.0543212890625 ZM 290.60186767578125 396.1933288574219 L 288.57708740234375 396.42022705078125 L 288.6012878417969 398.44744873046875 L 287.2075500488281 398.4640808105469 L 287.2257080078125 399.9844970703125 L 288.6194152832031 399.9678649902344 L 288.6977233886719 406.5309753417969 Q 288.71649169921875 408.1020812988281 289.6012878417969 408.9785461425781 Q 290.4681701660156 409.8372497558594 291.9451599121094 409.8372497558594 Q 291.9757080078125 409.8372497558594 292.00653076171875 409.8368835449219 Q 292.716064453125 409.8283996582031 293.650634765625 409.5638122558594 L 293.6340026855469 408.17010498046875 Q 293.05267333984375 408.30377197265625 292.6472473144531 408.30859375 Q 292.6278991699219 408.308837890625 292.6087341308594 408.308837890625 Q 290.7464599609375 408.308837890625 290.7204284667969 406.1266784667969 L 290.6466369628906 399.94366455078125 L 293.5860900878906 399.9085998535156 L 293.5679626464844 398.38818359375 L 290.62847900390625 398.4232482910156 L 290.60186767578125 396.1933288574219 ZM 320.6855163574219 397.81146240234375 Q 320.65814208984375 397.81146240234375 320.63067626953125 397.8117980957031 Q 318.5021057128906 397.8371887207031 317.16558837890625 399.4624938964844 Q 315.8291015625 401.0877685546875 315.859619140625 403.6471252441406 Q 315.8889465332031 406.1051330566406 317.0975036621094 407.5606384277344 Q 318.2864990234375 408.99267578125 320.2434387207031 408.99267578125 Q 320.2755432128906 408.99267578125 320.3078918457031 408.9922790527344 Q 322.86724853515625 408.96173095703125 323.9541015625 406.591796875 L 323.97528076171875 408.3656005859375 Q 324.0185241699219 411.9892578125 320.59759521484375 412.03009033203125 Q 320.5552062988281 412.0306091308594 320.5127868652344 412.0306091308594 Q 318.8311767578125 412.0306091308594 317.1159973144531 411.23529052734375 L 316.9090881347656 413.0118103027344 Q 318.61810302734375 413.55084228515625 320.50738525390625 413.55084228515625 Q 320.58673095703125 413.55084228515625 320.6664123535156 413.5498962402344 Q 323.4538269042969 413.5166320800781 324.7548828125 412.1072082519531 Q 325.50543212890625 411.2872314453125 325.76904296875 410.01690673828125 Q 326.0326843261719 408.7465515136719 326.00152587890625 406.1365051269531 L 325.9044494628906 398.0023193359375 L 323.8518981933594 398.02679443359375 L 323.8670349121094 399.2938232421875 Q 322.52581787109375 397.81146240234375 320.6855163574219 397.81146240234375 Z"
		fill="rgb(0,0,0)"
		stroke-linecap="square" 
		stroke-miterLimit="10.0" 
		stroke-width="0.0"
	/>
	<!-- javafx.scene.shape.Rectangle -->
	<path d="M 11.399999976158142 -0.6000000238418579 L 68.59999692440033 -0.6000000238418579 Q 80.59999692440033 -0.6000000238418579 80.59999692440033 11.399999976158142 L 80.59999692440033 18.600000739097595 Q 80.59999692440033 30.600000739097595 68.59999692440033 30.600000739097595 L 11.399999976158142 30.600000739097595 Q -0.6000000238418579 30.600000739097595 -0.6000000238418579 18.600000739097595 L -0.6000000238418579 11.399999976158142 Q -0.6000000238418579 -0.6000000238418579 11.399999976158142 -0.6000000238418579 Z"
		transform="matrix(1.621774407510107,-0.01935252758966752,0.01935252758966752,1.621774407510107,85.44906283415169,162.4004289451324)" 
		fill="url(#Gradient3)"
		stroke="rgb(127,127,127)"
		stroke-linecap="square" 
		stroke-miterLimit="10.0" 
		stroke-width="1.2" 
	/>
	<!-- javafx.scene.text.Text -->
	<path d="M 160.31057739257812 183.8970489501953 Q 162.6011505126953 183.8970489501953 162.6380157470703 186.986328125 L 157.69667053222656 187.0452880859375 Q 157.93821716308594 183.92510986328125 160.26951599121094 183.8972930908203 Q 160.29013061523438 183.8970489501953 160.31057739257812 183.8970489501953 ZM 179.43423461914062 179.48709106445312 Q 182.58995056152344 179.48709106445312 182.66600036621094 185.86029052734375 Q 182.7440185546875 192.3980712890625 179.5258026123047 192.4364776611328 Q 179.50775146484375 192.4366912841797 179.4897918701172 192.4366912841797 Q 176.3831787109375 192.4366912841797 176.30621337890625 185.98687744140625 Q 176.22909545898438 179.52511596679688 179.39662170410156 179.48731994628906 Q 179.4154815673828 179.48709106445312 179.43423461914062 179.48709106445312 ZM 147.33859252929688 184.0518035888672 Q 148.74240112304688 184.0518035888672 150.31080627441406 185.41004943847656 L 150.3721923828125 190.55410766601562 Q 148.77249145507812 192.4232940673828 147.10003662109375 192.44325256347656 Q 147.07949829101562 192.44349670410156 147.0591278076172 192.44349670410156 Q 144.4896240234375 192.44349670410156 144.44313049316406 188.54666137695312 Q 144.38990783691406 184.0867919921875 147.3040313720703 184.05201721191406 Q 147.32130432128906 184.0518035888672 147.33859252929688 184.0518035888672 ZM 134.6872100830078 184.202880859375 Q 137.80030822753906 184.202880859375 137.8512725830078 188.4732666015625 Q 137.90296936035156 192.8064422607422 134.6847686767578 192.8448486328125 Q 134.65782165527344 192.8451690673828 134.63108825683594 192.8451690673828 Q 131.54212951660156 192.8451690673828 131.49087524414062 188.54916381835938 Q 131.43946838378906 184.24131774902344 134.63233947753906 184.20321655273438 Q 134.65988159179688 184.202880859375 134.6872100830078 184.202880859375 ZM 179.4410858154297 177.96652221679688 Q 179.40985107421875 177.96652221679688 179.37847900390625 177.96690368652344 Q 176.9965057373047 177.99533081054688 175.5529327392578 180.20480346679688 Q 174.10934448242188 182.4142608642578 174.15228271484375 186.0125732421875 Q 174.19493103027344 189.58555603027344 175.67845153808594 191.78543090820312 Q 177.14324951171875 193.95755004882812 179.45925903320312 193.95755004882812 Q 179.48887634277344 193.95755004882812 179.51861572265625 193.9571990966797 Q 181.9766082763672 193.9278564453125 183.42018127441406 191.71839904785156 Q 184.86376953125 189.50892639160156 184.82022094726562 185.8599395751953 Q 184.777587890625 182.28695678710938 183.2816925048828 180.11256408691406 Q 181.80531311035156 177.96652221679688 179.4410858154297 177.96652221679688 ZM 160.44577026367188 182.3749542236328 Q 160.41204833984375 182.3749542236328 160.37806701660156 182.3753662109375 Q 158.24949645996094 182.40077209472656 156.88780212402344 184.0390167236328 Q 155.52610778808594 185.67727661132812 155.5563507080078 188.2113037109375 Q 155.58779907226562 190.8466796875 157.1657257080078 192.46253967285156 Q 158.71524047851562 194.04928588867188 161.1378631591797 194.04928588867188 Q 161.18228149414062 194.04928588867188 161.2270050048828 194.0487518310547 Q 162.67138671875 194.03150939941406 164.69134521484375 193.39915466308594 L 164.6719970703125 191.77737426757812 Q 162.8556671142578 192.48333740234375 161.58865356445312 192.4984588623047 Q 161.55282592773438 192.49888610839844 161.51731872558594 192.49888610839844 Q 158.11212158203125 192.49888610839844 157.6387939453125 188.5666046142578 L 164.68336486816406 188.4825439453125 L 164.67581176757812 187.8490447998047 Q 164.64405822753906 185.18832397460938 163.52467346191406 183.76974487304688 Q 162.42405700683594 182.3749542236328 160.44577026367188 182.3749542236328 ZM 152.27113342285156 177.6567840576172 L 150.2185821533203 177.6812744140625 L 150.29417419433594 184.01632690429688 Q 149.00416564941406 182.5348663330078 147.04421997070312 182.5348663330078 Q 147.01309204101562 182.5348663330078 146.9818115234375 182.5352325439453 Q 144.8532257080078 182.5606231689453 143.55580139160156 184.27413940429688 Q 142.25836181640625 185.9876708984375 142.2916259765625 188.77508544921875 Q 142.32215881347656 191.33445739746094 143.50535583496094 192.79026794433594 Q 144.66944885253906 194.22259521484375 146.62600708007812 194.22259521484375 Q 146.65811157226562 194.22259521484375 146.69041442871094 194.2222137451172 Q 149.17376708984375 194.1925811767578 150.38731384277344 191.8211212158203 L 150.41241455078125 193.9243621826172 L 152.4649658203125 193.89987182617188 L 152.27113342285156 177.6567840576172 ZM 123.08011627197266 182.82077026367188 Q 123.05265808105469 182.82077026367188 123.02499389648438 182.82110595703125 Q 120.69369506835938 182.8489227294922 119.12538146972656 185.224609375 L 119.10028839111328 183.12136840820312 L 117.07306671142578 183.14556884765625 L 117.2064208984375 194.3206024169922 L 119.23363494873047 194.29641723632812 L 119.14715576171875 187.04910278320312 Q 120.76524353027344 184.59678649902344 122.64041900634766 184.5744171142578 Q 122.65593719482422 184.57423400878906 122.67129516601562 184.57423400878906 Q 123.48358154296875 184.57423400878906 123.85042572021484 185.09219360351562 Q 124.22421264648438 185.6199493408203 124.23902893066406 186.86163330078125 L 124.3270263671875 194.23562622070312 L 126.35424041748047 194.21144104003906 L 126.25838470458984 186.1785888671875 Q 126.23993682861328 184.63284301757812 125.3673324584961 183.71820068359375 Q 124.51115417480469 182.82077026367188 123.08011627197266 182.82077026367188 ZM 134.7049560546875 182.68226623535156 Q 134.6597442626953 182.68226623535156 134.61419677734375 182.6828155517578 Q 132.13084411621094 182.7124481201172 130.71788024902344 184.3006134033203 Q 129.30490112304688 185.8887939453125 129.33694458007812 188.57485961914062 Q 129.36900329589844 191.26092529296875 130.8196258544922 192.82760620117188 Q 132.24412536621094 194.36607360839844 134.59117126464844 194.36607360839844 Q 134.63421630859375 194.36607360839844 134.6775665283203 194.3655548095703 Q 137.18624877929688 194.3356170654297 138.61204528808594 192.7599639892578 Q 140.037841796875 191.18431091308594 140.00518798828125 188.4475555419922 Q 139.97312927246094 185.76148986816406 138.5226593017578 184.20748901367188 Q 137.0990753173828 182.68226623535156 134.7049560546875 182.68226623535156 Z"
		fill="rgb(0,0,0)"
		stroke-linecap="square" 
		stroke-miterLimit="10.0" 
		stroke-width="0.0"
	/>
	<!-- javafx.scene.shape.Rectangle -->
	<path d="M 11.399999976158142 -0.6000000238418579 L 68.59999692440033 -0.6000000238418579 Q 80.59999692440033 -0.6000000238418579 80.59999692440033 11.399999976158142 L 80.59999692440033 18.600000739097595 Q 80.59999692440033 30.600000739097595 68.59999692440033 30.600000739097595 L 11.399999976158142 30.600000739097595 Q -0.6000000238418579 30.600000739097595 -0.6000000238418579 18.600000739097595 L -0.6000000238418579 11.399999976158142 Q -0.6000000238418579 -0.6000000238418579 11.399999976158142 -0.6000000238418579 Z"
		transform="matrix(1.7028631278856126,-0.0203201539691509,0.0203201539691509,1.7028631278856126,242.91700093054368,37.654469841955276)" 
		fill="url(#Gradient4)"
		stroke="rgb(127,127,127)"
		stroke-linecap="square" 
		stroke-miterLimit="10.0" 
		stroke-width="1.2" 
	/>
	<!-- javafx.scene.text.Text -->
	<path d="M 321.5216064453125 60.22591781616211 Q 323.9266662597656 60.22591781616211 323.96539306640625 63.46965789794922 L 318.7769775390625 63.53157043457031 Q 319.0306091308594 60.25539016723633 321.4784851074219 60.22617721557617 Q 321.5001525878906 60.22591781616211 321.5216064453125 60.22591781616211 ZM 307.9010009765625 60.38841247558594 Q 309.3750305175781 60.38841247558594 311.0218200683594 61.8145637512207 L 311.0862731933594 67.21583557128906 Q 309.4065856933594 69.17848205566406 307.6505126953125 69.1994400024414 Q 307.62896728515625 69.19969940185547 307.6075744628906 69.19969940185547 Q 304.9095764160156 69.19969940185547 304.86077880859375 65.10801696777344 Q 304.80487060546875 60.42514419555664 307.8647155761719 60.38862991333008 Q 307.8828430175781 60.38841247558594 307.9010009765625 60.38841247558594 ZM 294.6170654296875 60.54705810546875 Q 297.88580322265625 60.54705810546875 297.9393005371094 65.03094482421875 Q 297.9936218261719 69.58078002929688 294.614501953125 69.62110137939453 Q 294.586181640625 69.6214370727539 294.5581359863281 69.6214370727539 Q 291.3147277832031 69.6214370727539 291.2608947753906 65.11063385009766 Q 291.2069091796875 60.587406158447266 294.5594482421875 60.547401428222656 Q 294.58837890625 60.54705810546875 294.6170654296875 60.54705810546875 ZM 345.6185607910156 54.34980010986328 L 337.50335693359375 54.44664001464844 L 337.5960693359375 62.2159538269043 Q 338.20709228515625 62.12882995605469 338.7924499511719 62.12184524536133 Q 338.8719177246094 62.12089538574219 338.95013427734375 62.12089538574219 Q 343.7420959472656 62.12089538574219 343.7845764160156 65.6813735961914 Q 343.8039245605469 67.30441284179688 342.910400390625 68.2464599609375 Q 342.0168762207031 69.18850708007812 340.4470520019531 69.20724487304688 Q 340.4083557128906 69.20771026611328 340.36956787109375 69.20771026611328 Q 338.9670715332031 69.20771026611328 337.40618896484375 68.60486602783203 L 337.40618896484375 68.60486602783203 L 337.4287414550781 70.49398040771484 Q 338.911376953125 70.8077621459961 340.0726623535156 70.8077621459961 Q 340.12335205078125 70.8077621459961 340.17340087890625 70.80716705322266 Q 342.9671630859375 70.77383422851562 344.5211181640625 69.42473602294922 Q 346.0750732421875 68.07564544677734 346.0474548339844 65.76081085205078 Q 346.0173034667969 63.23312759399414 344.27099609375 61.84357833862305 Q 342.56939697265625 60.4896125793457 339.6206970214844 60.4896125793457 Q 339.543212890625 60.4896125793457 339.4648742675781 60.49054718017578 L 339.4147033691406 56.28660202026367 L 345.6407775878906 56.21230697631836 L 345.6185607910156 54.34980010986328 ZM 321.66357421875 58.62773132324219 Q 321.628173828125 58.62773132324219 321.59246826171875 58.62815856933594 Q 319.3574523925781 58.65482711791992 317.92767333984375 60.374996185302734 Q 316.4978942871094 62.09516143798828 316.5296630859375 64.7558822631836 Q 316.56268310546875 67.52304077148438 318.2195129394531 69.21968078613281 Q 319.8464660644531 70.88575744628906 322.39019775390625 70.88575744628906 Q 322.4368591308594 70.88575744628906 322.48382568359375 70.88520050048828 Q 324.0004577636719 70.86710357666016 326.12139892578125 70.20313262939453 L 326.10107421875 68.5002670288086 Q 324.1939392089844 69.24152374267578 322.86358642578125 69.25740051269531 Q 322.82598876953125 69.25785064697266 322.7886962890625 69.25785064697266 Q 319.21319580078125 69.25785064697266 318.7162170410156 65.12895965576172 L 326.113037109375 65.04069519042969 L 326.1050720214844 64.3755111694336 Q 326.0717468261719 61.58175277709961 324.8963928222656 60.092254638671875 Q 323.7407531738281 58.62773132324219 321.66357421875 58.62773132324219 ZM 313.0801696777344 53.67363739013672 L 310.92498779296875 53.69935607910156 L 311.0043640136719 60.351165771484375 Q 309.64984130859375 58.79561233520508 307.59185791015625 58.79561233520508 Q 307.5592041015625 58.79561233520508 307.5263671875 58.79600524902344 Q 305.2913818359375 58.82267761230469 303.9290771484375 60.62187194824219 Q 302.5667724609375 62.42106628417969 302.6016845703125 65.34786224365234 Q 302.6337585449219 68.03519439697266 303.8760986328125 69.56381225585938 Q 305.098388671875 71.06774139404297 307.15277099609375 71.06774139404297 Q 307.1864929199219 71.06774139404297 307.2204284667969 71.06733703613281 Q 309.82794189453125 71.03622436523438 311.1021728515625 68.54619598388672 L 311.1285095214844 70.75459289550781 L 313.28369140625 70.72887420654297 L 313.0801696777344 53.67363739013672 ZM 282.4295959472656 59.095829010009766 Q 282.4007873535156 59.095829010009766 282.3717346191406 59.09617614746094 Q 279.9238586425781 59.12538528442383 278.2771301269531 61.6198616027832 L 278.25079345703125 59.411460876464844 L 276.1221923828125 59.43686294555664 L 276.2622375488281 71.170654296875 L 278.39080810546875 71.14524841308594 L 278.29998779296875 63.53558349609375 Q 279.9989929199219 60.96065139770508 281.9679260253906 60.937156677246094 Q 281.9842224121094 60.93696212768555 282.0003356933594 60.93696212768555 Q 282.853271484375 60.93696212768555 283.2384338378906 61.48082733154297 Q 283.63092041015625 62.03497314453125 283.6464538574219 63.33872985839844 L 283.7388610839844 71.08143615722656 L 285.867431640625 71.0560302734375 L 285.76678466796875 62.62154006958008 Q 285.7474365234375 60.998497009277344 284.8311767578125 60.03812789916992 Q 283.93218994140625 59.095829010009766 282.4295959472656 59.095829010009766 ZM 294.6356506347656 58.95039749145508 Q 294.58819580078125 58.95039749145508 294.5403747558594 58.95096969604492 Q 291.932861328125 58.98208236694336 290.4492492675781 60.6496696472168 Q 288.96563720703125 62.317256927490234 288.9992980957031 65.13762664794922 Q 289.0329284667969 67.95799255371094 290.55609130859375 69.6030044555664 Q 292.05181884765625 71.21839904785156 294.5162353515625 71.21839904785156 Q 294.5614318847656 71.21839904785156 294.60693359375 71.21785736083984 Q 297.2410583496094 71.1864242553711 298.7381286621094 69.531982421875 Q 300.2352294921875 67.8775405883789 300.200927734375 65.00395965576172 Q 300.1672668457031 62.183589935302734 298.644287109375 60.5518798828125 Q 297.1495056152344 58.95039749145508 294.6356506347656 58.95039749145508 Z"
		fill="rgb(0,0,0)"
		stroke-linecap="square" 
		stroke-miterLimit="10.0" 
		stroke-width="0.0"
	/>
	<!-- de.itemis.javafx.diagram.XConnection -->
	<path d="M 322.0 196.0 L 323.0 298.0"
		transform="matrix(1.621774407510107,-0.01935252758966752,0.01935252758966752,1.621774407510107,-212.90704889135938,-101.670187662733)" 
		fill="gray"
		stroke="rgb(0,0,0)"
		stroke-linecap="square" 
		stroke-miterLimit="10.0" 
		stroke-width="0.9248470121776035" 
	/>
	<!-- de.itemis.javafx.diagram.XConnectionLabel -->
	<path d="M 337.1348876953125 269.7801208496094 L 320.8945007324219 270.1331787109375 L 320.9385681152344 272.1600646972656 L 337.178955078125 271.8070068359375 L 337.1348876953125 269.7801208496094 ZM 324.2369079589844 277.2218322753906 Q 325.2448425292969 277.2218322753906 325.8862609863281 278.21209716796875 Q 326.5419616699219 279.22442626953125 326.57830810546875 280.8966064453125 L 326.5678405761719 281.58123779296875 L 323.6795349121094 281.6440124511719 Q 322.5096740722656 280.3006591796875 322.48211669921875 279.0338439941406 Q 322.4661560058594 278.2991027832031 322.9615783691406 277.7687072753906 Q 323.45703125 277.2383117675781 324.1917724609375 277.2223205566406 Q 324.2144470214844 277.2218322753906 324.2369079589844 277.2218322753906 ZM 323.9111328125 275.20159912109375 Q 323.864990234375 275.20159912109375 323.8183288574219 275.2026062011719 Q 322.5008544921875 275.2312316894531 321.6466064453125 276.162353515625 Q 320.7923278808594 277.09344482421875 320.8226318359375 278.4869384765625 Q 320.8595275878906 280.1844482421875 322.57135009765625 281.9722900390625 Q 320.9074401855469 282.388671875 320.93829345703125 283.8074951171875 Q 320.9564514160156 284.6435852050781 321.3006896972656 285.32049560546875 L 322.41217041015625 285.1442565917969 Q 322.38134765625 284.8914489746094 322.3785705566406 284.7647705078125 Q 322.3554382324219 283.7006530761719 324.07830810546875 283.6631774902344 L 329.1455078125 283.55303955078125 Q 330.9190368652344 283.51446533203125 331.7485046386719 282.6092529296875 Q 332.5780029296875 281.70404052734375 332.5372314453125 279.8291931152344 Q 332.4981384277344 278.03033447265625 331.617431640625 275.99627685546875 L 329.94525146484375 276.0326232910156 Q 330.97412109375 277.8860168457031 331.0088195800781 279.482177734375 Q 331.0523376464844 281.4837341308594 329.1014404296875 281.5261535644531 L 327.7586364746094 281.5553283691406 L 327.7481689453125 281.0739440917969 Q 327.6853942871094 278.1856384277344 326.6639404296875 276.6742858886719 Q 325.66864013671875 275.20159912109375 323.9111328125 275.20159912109375 ZM 329.1275939941406 289.7248840332031 Q 331.01239013671875 291.3061828613281 331.0492858886719 293.0036926269531 Q 331.10546875 295.58795166015625 327.1783752441406 295.67333984375 Q 327.0348205566406 295.67645263671875 326.89581298828125 295.67645263671875 Q 322.7171936035156 295.67645263671875 322.6558837890625 292.85662841796875 Q 322.6250305175781 291.43780517578125 323.984375 289.836669921875 L 329.1275939941406 289.7248840332031 ZM 337.52044677734375 287.51458740234375 L 321.1533508300781 287.8703918457031 L 321.19189453125 289.6439208984375 L 322.59088134765625 289.8669738769531 Q 321.099365234375 291.2174987792969 321.142333984375 293.1936950683594 Q 321.18914794921875 295.3472595214844 322.9153137207031 296.6278381347656 Q 324.5635070800781 297.8505859375 327.1788330078125 297.8505859375 Q 327.30255126953125 297.8505859375 327.4284362792969 297.84783935546875 Q 329.98736572265625 297.7922058105469 331.4315185546875 296.59478759765625 Q 332.87567138671875 295.39739990234375 332.8321533203125 293.3958435058594 Q 332.77764892578125 290.8875732421875 330.3944091796875 289.69732666015625 L 337.5644836425781 289.54144287109375 L 337.52044677734375 287.51458740234375 ZM 328.38604736328125 302.25421142578125 Q 331.5084533691406 302.46514892578125 331.5591125488281 304.7960510253906 Q 331.60980224609375 307.1269836425781 328.49346923828125 307.1947326660156 L 328.38604736328125 302.25421142578125 ZM 327.39703369140625 300.1232604980469 Q 327.29876708984375 300.1232604980469 327.1991271972656 300.12542724609375 Q 324.5641784667969 300.1827087402344 322.9638671875 301.7763977050781 Q 321.3635559082031 303.3700866699219 321.41754150390625 305.85302734375 Q 321.4489440917969 307.29718017578125 322.10107421875 309.31085205078125 L 323.7225646972656 309.27557373046875 Q 322.99884033203125 307.4662780761719 322.9713134765625 306.199462890625 Q 322.8958435058594 302.7284240722656 326.8642272949219 302.21124267578125 L 327.0173645019531 309.2546691894531 L 327.6507568359375 309.2408752441406 Q 330.31103515625 309.18304443359375 331.71856689453125 308.0498046875 Q 333.1260986328125 306.91656494140625 333.08203125 304.88970947265625 Q 333.0357666015625 302.761474609375 331.3842468261719 301.4158935546875 Q 329.79766845703125 300.1232604980469 327.39703369140625 300.1232604980469 ZM 338.0641784667969 312.5260009765625 L 321.8237609863281 312.8790588378906 L 321.8678283691406 314.90594482421875 L 338.1082458496094 314.5528869628906 L 338.0641784667969 312.5260009765625 Z"
		fill="rgb(0,0,0)"
		stroke-linecap="square" 
		stroke-miterLimit="10.0" 
		stroke-width="0.0"
	/>
	<!-- de.itemis.javafx.diagram.XConnection -->
	<path d="M 281.0 180.0 L 263.0 180.0"
		transform="matrix(1.621774407510107,-0.01935252758966752,0.01935252758966752,1.621774407510107,-212.90704889135938,-101.670187662733)" 
		fill="gray"
		stroke="rgb(0,0,0)"
		stroke-linecap="square" 
		stroke-miterLimit="10.0" 
		stroke-width="0.9248470121776035" 
	/>
	<!-- de.itemis.javafx.diagram.XConnection -->
	<path d="M 322.0 164.0 L 322.0 121.80000305175781"
		transform="matrix(1.621774407510107,-0.01935252758966752,0.01935252758966752,1.621774407510107,-212.90704889135938,-101.670187662733)" 
		fill="gray"
		stroke="rgb(0,0,0)"
		stroke-linecap="square" 
		stroke-miterLimit="10.0" 
		stroke-width="0.9248470121776035" 
	/>
	<defs>
		<linearGradient id="Gradient1"
			gradientUnits="objectBoundingBox"
			spreadMethod="no_cycle" >
			<stop offset="0.0%" stop-color="rgb(153,153,153)" />
			<stop offset="100.0%" stop-color="rgb(229,229,229)" />
		</linearGradient>
		<linearGradient id="Gradient2"
			gradientUnits="objectBoundingBox"
			spreadMethod="no_cycle" >
			<stop offset="0.0%" stop-color="rgb(153,153,153)" />
			<stop offset="100.0%" stop-color="rgb(229,229,229)" />
		</linearGradient>
		<linearGradient id="Gradient3"
			gradientUnits="objectBoundingBox"
			spreadMethod="no_cycle" >
			<stop offset="0.0%" stop-color="rgb(153,153,153)" />
			<stop offset="100.0%" stop-color="rgb(229,229,229)" />
		</linearGradient>
		<linearGradient id="Gradient4"
			gradientUnits="objectBoundingBox"
			spreadMethod="no_cycle" >
			<stop offset="0.0%" stop-color="rgb(153,153,153)" />
			<stop offset="100.0%" stop-color="rgb(229,229,229)" />
		</linearGradient>
	</defs>
</svg>
