<?xml version="1.0" standalone="no"?>
<!DOCTYPE svg PUBLIC "-//W3C//DTD SVG 1.1//EN" 
	"http://www.w3.org/Graphics/SVG/1.1/DTD/svg11.dtd">
<svg viewBox="0.0 0.0 365.0 319.0"
	xmlns="http://www.w3.org/2000/svg" xmlns:xlink="http://www.w3.org/1999/xlink" version="1.1">
	<!-- de.fxdiagram.lib.shapes.RectangleBorderPane -->
	<rect
		transform="matrix(1.0,0.0,0.0,1.0,280.0,170.0)"  
		width="84.4" height="38.400000000000006"
		rx="12.0" ry="12.0"
		fill="url(#Gradient1)"
		stroke="rgb(128,128,128)"
		strokeWidth="1.2"
	/>
	<!-- javafx.scene.text.Text -->
	<path d="M 339.54840087890625 188.0037078857422 Q 340.98590087890625 188.0037078857422 340.98590087890625 189.9255828857422 L 337.93902587890625 189.9255828857422 Q 338.11090087890625 188.0037078857422 339.54840087890625 188.0037078857422 ZM 311.87652587890625 188.0037078857422 Q 313.82965087890625 188.0037078857422 313.82965087890625 190.6599578857422 Q 313.82965087890625 193.3318328857422 311.84527587890625 193.3318328857422 Q 309.90777587890625 193.3318328857422 309.90777587890625 190.6599578857422 Q 309.90777587890625 188.0037078857422 311.87652587890625 188.0037078857422 ZM 328.58599853515625 187.0662078857422 Q 327.17974853515625 187.0662078857422 326.42974853515625 188.5193328857422 L 326.42974853515625 187.2224578857422 L 325.17974853515625 187.2224578857422 L 325.17974853515625 194.1130828857422 L 326.42974853515625 194.1130828857422 L 326.42974853515625 189.5662078857422 Q 327.22662353515625 188.1599578857422 328.41412353515625 188.1599578857422 Q 328.66412353515625 188.1599578857422 328.99224853515625 188.2693328857422 L 328.99224853515625 187.0974578857422 Q 328.77349853515625 187.0662078857422 328.58599853515625 187.0662078857422 ZM 304.67144775390625 187.0662078857422 Q 303.56207275390625 187.0662078857422 302.92144775390625 187.5818328857422 Q 302.28082275390625 188.0974578857422 302.28082275390625 189.0037078857422 Q 302.28082275390625 190.2693328857422 303.90582275390625 190.9412078857422 L 304.64019775390625 191.2537078857422 Q 305.62457275390625 191.6755828857422 305.62457275390625 192.3162078857422 Q 305.62457275390625 192.7537078857422 305.27301025390625 193.0427703857422 Q 304.92144775390625 193.3318328857422 304.37457275390625 193.3318328857422 Q 303.46832275390625 193.3318328857422 302.24957275390625 192.7224578857422 L 302.24957275390625 193.8787078857422 Q 303.46832275390625 194.2693328857422 304.32769775390625 194.2693328857422 Q 305.45269775390625 194.2693328857422 306.16363525390625 193.6833953857422 Q 306.87457275390625 193.0974578857422 306.87457275390625 192.1912078857422 Q 306.87457275390625 191.4724578857422 306.45269775390625 190.9958953857422 Q 306.03082275390625 190.5193328857422 305.01519775390625 190.0818328857422 L 304.40582275390625 189.8318328857422 Q 303.48394775390625 189.4412078857422 303.48394775390625 188.8787078857422 Q 303.48394775390625 188.0037078857422 304.70269775390625 188.0037078857422 Q 305.31207275390625 188.0037078857422 306.35894775390625 188.3162078857422 L 306.35894775390625 187.2693328857422 L 306.09332275390625 187.2224578857422 Q 305.24957275390625 187.0662078857422 304.67144775390625 187.0662078857422 ZM 311.87652587890625 187.0662078857422 Q 310.34527587890625 187.0662078857422 309.46246337890625 188.0349578857422 Q 308.57965087890625 189.0037078857422 308.57965087890625 190.6599578857422 Q 308.57965087890625 192.3162078857422 309.46246337890625 193.2927703857422 Q 310.34527587890625 194.2693328857422 311.82965087890625 194.2693328857422 Q 313.37652587890625 194.2693328857422 314.26715087890625 193.3083953857422 Q 315.15777587890625 192.3474578857422 315.15777587890625 190.6599578857422 Q 315.15777587890625 189.0037078857422 314.27496337890625 188.0349578857422 Q 313.39215087890625 187.0662078857422 311.87652587890625 187.0662078857422 ZM 317.03375244140625 187.2224578857422 L 317.03375244140625 192.1755828857422 Q 317.03375244140625 193.1287078857422 317.56500244140625 193.6990203857422 Q 318.09625244140625 194.2693328857422 319.00250244140625 194.2693328857422 Q 320.42437744140625 194.2693328857422 321.42437744140625 192.8162078857422 L 321.42437744140625 194.1130828857422 L 322.67437744140625 194.1130828857422 L 322.67437744140625 187.2224578857422 L 321.42437744140625 187.2224578857422 L 321.42437744140625 191.6912078857422 Q 320.40875244140625 193.1912078857422 319.26812744140625 193.1912078857422 Q 318.73687744140625 193.1912078857422 318.51031494140625 192.8630828857422 Q 318.28375244140625 192.5349578857422 318.28375244140625 191.7693328857422 L 318.28375244140625 187.2224578857422 ZM 333.40533447265625 187.0662078857422 Q 331.78033447265625 187.0662078857422 330.86627197265625 188.0037078857422 Q 329.95220947265625 188.9412078857422 329.95220947265625 190.6287078857422 Q 329.95220947265625 192.2068328857422 330.87408447265625 193.2380828857422 Q 331.79595947265625 194.2693328857422 333.18658447265625 194.2693328857422 Q 334.07720947265625 194.2693328857422 335.28033447265625 193.9099578857422 L 335.28033447265625 192.8318328857422 Q 334.37408447265625 193.2693328857422 333.51470947265625 193.2693328857422 Q 332.56158447265625 193.2693328857422 331.96002197265625 192.5505828857422 Q 331.35845947265625 191.8318328857422 331.35845947265625 190.6599578857422 Q 331.35845947265625 189.4724578857422 331.94439697265625 188.7458953857422 Q 332.53033447265625 188.0193328857422 333.48345947265625 188.0193328857422 Q 334.15533447265625 188.0193328857422 335.20220947265625 188.3318328857422 L 335.20220947265625 187.2849578857422 Q 334.21783447265625 187.0662078857422 333.40533447265625 187.0662078857422 ZM 339.62652587890625 187.0662078857422 Q 338.31402587890625 187.0662078857422 337.46246337890625 188.0662078857422 Q 336.61090087890625 189.0662078857422 336.61090087890625 190.6287078857422 Q 336.61090087890625 192.2537078857422 337.57183837890625 193.2615203857422 Q 338.53277587890625 194.2693328857422 340.06402587890625 194.2693328857422 Q 340.95465087890625 194.2693328857422 342.20465087890625 193.8943328857422 L 342.20465087890625 192.8943328857422 Q 341.07965087890625 193.3162078857422 340.29840087890625 193.3162078857422 Q 338.15777587890625 193.3162078857422 337.89215087890625 190.8630828857422 L 342.23590087890625 190.8630828857422 L 342.23590087890625 190.4724578857422 Q 342.23590087890625 188.8318328857422 341.55621337890625 187.9490203857422 Q 340.87652587890625 187.0662078857422 339.62652587890625 187.0662078857422 Z"
		fill="rgb(0,0,0)"
		stroke-linecap="square" 
		stroke-miterLimit="10.0" 
		stroke-width="0.0"
	/>
	<!-- de.fxdiagram.lib.shapes.RectangleBorderPane -->
	<rect
		transform="matrix(1.0,0.0,0.0,1.0,280.0,280.0)"  
		width="80.4" height="38.400000000000006"
		rx="12.0" ry="12.0"
		fill="url(#Gradient2)"
		stroke="rgb(128,128,128)"
		strokeWidth="1.2"
	/>
	<!-- javafx.scene.text.Text -->
	<path d="M 330.52154541015625 298.00372314453125 Q 331.95904541015625 298.00372314453125 331.95904541015625 299.92559814453125 L 328.91217041015625 299.92559814453125 Q 329.08404541015625 298.00372314453125 330.52154541015625 298.00372314453125 ZM 322.64996337890625 298.00372314453125 Q 323.61871337890625 298.00372314453125 324.44683837890625 298.86309814453125 L 324.44683837890625 301.72247314453125 Q 323.49371337890625 302.86309814453125 322.39996337890625 302.86309814453125 Q 320.80621337890625 302.86309814453125 320.80621337890625 300.59747314453125 Q 320.80621337890625 299.39434814453125 321.29840087890625 298.69903564453125 Q 321.79058837890625 298.00372314453125 322.64996337890625 298.00372314453125 ZM 310.47955322265625 300.75372314453125 L 310.90142822265625 300.76934814453125 L 310.90142822265625 302.55059814453125 Q 310.05767822265625 303.25372314453125 309.27642822265625 303.25372314453125 Q 308.82330322265625 303.25372314453125 308.50299072265625 302.94122314453125 Q 308.18267822265625 302.62872314453125 308.18267822265625 302.17559814453125 Q 308.18267822265625 301.53497314453125 308.81549072265625 301.14434814453125 Q 309.44830322265625 300.75372314453125 310.47955322265625 300.75372314453125 ZM 318.11187744140625 297.06622314453125 Q 316.70562744140625 297.06622314453125 315.95562744140625 298.51934814453125 L 315.95562744140625 297.22247314453125 L 314.70562744140625 297.22247314453125 L 314.70562744140625 304.11309814453125 L 315.95562744140625 304.11309814453125 L 315.95562744140625 299.56622314453125 Q 316.75250244140625 298.15997314453125 317.94000244140625 298.15997314453125 Q 318.19000244140625 298.15997314453125 318.51812744140625 298.26934814453125 L 318.51812744140625 297.09747314453125 Q 318.29937744140625 297.06622314453125 318.11187744140625 297.06622314453125 ZM 303.96099853515625 295.84747314453125 L 302.71099853515625 295.97247314453125 L 302.71099853515625 297.22247314453125 L 301.85162353515625 297.22247314453125 L 301.85162353515625 298.15997314453125 L 302.71099853515625 298.15997314453125 L 302.71099853515625 302.20684814453125 Q 302.71099853515625 303.17559814453125 303.25006103515625 303.72247314453125 Q 303.78912353515625 304.26934814453125 304.72662353515625 304.26934814453125 Q 305.16412353515625 304.26934814453125 305.74224853515625 304.11309814453125 L 305.74224853515625 303.25372314453125 Q 305.38287353515625 303.33184814453125 305.13287353515625 303.33184814453125 Q 303.96099853515625 303.33184814453125 303.96099853515625 301.97247314453125 L 303.96099853515625 298.15997314453125 L 305.77349853515625 298.15997314453125 L 305.77349853515625 297.22247314453125 L 303.96099853515625 297.22247314453125 L 303.96099853515625 295.84747314453125 ZM 309.90142822265625 297.06622314453125 Q 308.79205322265625 297.06622314453125 307.52642822265625 297.58184814453125 L 307.52642822265625 298.61309814453125 Q 308.68267822265625 298.00372314453125 309.66705322265625 298.00372314453125 Q 310.90142822265625 298.00372314453125 310.90142822265625 299.20684814453125 L 310.90142822265625 300.03497314453125 L 310.60455322265625 300.03497314453125 Q 308.82330322265625 300.03497314453125 307.87799072265625 300.64434814453125 Q 306.93267822265625 301.25372314453125 306.93267822265625 302.37872314453125 Q 306.93267822265625 303.19122314453125 307.49517822265625 303.73028564453125 Q 308.05767822265625 304.26934814453125 308.91705322265625 304.26934814453125 Q 309.96392822265625 304.26934814453125 311.08892822265625 303.23809814453125 Q 311.32330322265625 304.26934814453125 312.19830322265625 304.26934814453125 Q 312.71392822265625 304.26934814453125 313.13580322265625 304.06622314453125 L 313.04205322265625 303.37872314453125 Q 312.88580322265625 303.39434814453125 312.80767822265625 303.39434814453125 Q 312.15142822265625 303.39434814453125 312.15142822265625 302.33184814453125 L 312.15142822265625 299.20684814453125 Q 312.15142822265625 298.11309814453125 311.60455322265625 297.58966064453125 Q 311.05767822265625 297.06622314453125 309.90142822265625 297.06622314453125 ZM 330.59967041015625 297.06622314453125 Q 329.28717041015625 297.06622314453125 328.43560791015625 298.06622314453125 Q 327.58404541015625 299.06622314453125 327.58404541015625 300.62872314453125 Q 327.58404541015625 302.25372314453125 328.54498291015625 303.26153564453125 Q 329.50592041015625 304.26934814453125 331.03717041015625 304.26934814453125 Q 331.92779541015625 304.26934814453125 333.17779541015625 303.89434814453125 L 333.17779541015625 302.89434814453125 Q 332.05279541015625 303.31622314453125 331.27154541015625 303.31622314453125 Q 329.13092041015625 303.31622314453125 328.86529541015625 300.86309814453125 L 333.20904541015625 300.86309814453125 L 333.20904541015625 300.47247314453125 Q 333.20904541015625 298.83184814453125 332.52935791015625 297.94903564453125 Q 331.84967041015625 297.06622314453125 330.59967041015625 297.06622314453125 ZM 336.67047119140625 295.84747314453125 L 335.42047119140625 295.97247314453125 L 335.42047119140625 297.22247314453125 L 334.56109619140625 297.22247314453125 L 334.56109619140625 298.15997314453125 L 335.42047119140625 298.15997314453125 L 335.42047119140625 302.20684814453125 Q 335.42047119140625 303.17559814453125 335.95953369140625 303.72247314453125 Q 336.49859619140625 304.26934814453125 337.43609619140625 304.26934814453125 Q 337.87359619140625 304.26934814453125 338.45172119140625 304.11309814453125 L 338.45172119140625 303.25372314453125 Q 338.09234619140625 303.33184814453125 337.84234619140625 303.33184814453125 Q 336.67047119140625 303.33184814453125 336.67047119140625 301.97247314453125 L 336.67047119140625 298.15997314453125 L 338.48297119140625 298.15997314453125 L 338.48297119140625 297.22247314453125 L 336.67047119140625 297.22247314453125 L 336.67047119140625 295.84747314453125 ZM 322.46246337890625 297.06622314453125 Q 321.14996337890625 297.06622314453125 320.31402587890625 298.05841064453125 Q 319.47808837890625 299.05059814453125 319.47808837890625 300.62872314453125 Q 319.47808837890625 302.14434814453125 320.21246337890625 303.05059814453125 Q 320.94683837890625 303.95684814453125 322.18121337890625 303.95684814453125 Q 323.75933837890625 303.95684814453125 324.44683837890625 302.50372314453125 L 324.44683837890625 303.59747314453125 Q 324.44683837890625 305.83184814453125 322.33746337890625 305.83184814453125 Q 321.27496337890625 305.83184814453125 320.19683837890625 305.31622314453125 L 320.05621337890625 306.40997314453125 Q 321.14996337890625 306.76934814453125 322.36871337890625 306.76934814453125 Q 324.08746337890625 306.76934814453125 324.89996337890625 305.90997314453125 Q 325.36871337890625 305.40997314453125 325.54058837890625 304.62872314453125 Q 325.71246337890625 303.84747314453125 325.71246337890625 302.23809814453125 L 325.71246337890625 297.22247314453125 L 324.44683837890625 297.22247314453125 L 324.44683837890625 298.00372314453125 Q 323.61871337890625 297.06622314453125 322.46246337890625 297.06622314453125 Z"
		fill="rgb(0,0,0)"
		stroke-linecap="square" 
		stroke-miterLimit="10.0" 
		stroke-width="0.0"
	/>
	<!-- de.fxdiagram.lib.shapes.ImageNode -->
	<image transform="matrix(1.0,0.0,0.0,1.0,100.0,100.0)"  width="100.0" height="66.71875" xlink:href="ImageNode0.png"/>
	<!-- de.fxdiagram.lib.shapes.MovieNode -->
	<image transform="matrix(1.0,0.0,0.0,1.0,100.0,200.0)"  width="145.0" height="90.0" xlink:href="MovieNode0.png"/>
	<!-- de.fxdiagram.lib.shapes.RecursiveImageNode -->
	<image  width="150.0" height="80.0625" xlink:href="RecursiveImageNode0.png"/>
	<!-- de.fxdiagram.lib.shapes.RectangleBorderPane -->
	<rect
		transform="matrix(1.0,0.0,0.0,1.0,19.0,41.0)"  
		width="122.0" height="39.0"
		rx="12.0" ry="12.0"
		fill="url(#Gradient3)"
		stroke="rgb(128,128,128)"
		strokeWidth="1.2"
	/>
	<!-- javafx.scene.text.Text -->
	<path d="M 54.95166015625 56.0224609375 L 54.95166015625 57.2724609375 L 56.20166015625 57.2724609375 L 56.20166015625 56.0224609375 ZM 43.95166015625 57.0224609375 Q 46.10791015625 57.0224609375 46.10791015625 58.3974609375 Q 46.10791015625 59.2255859375 45.52197265625 59.6865234375 Q 44.93603515625 60.1474609375 43.85791015625 60.1474609375 L 43.43603515625 60.1474609375 L 43.43603515625 57.0224609375 ZM 74.76318359375 57.0224609375 Q 76.91943359375 57.0224609375 76.91943359375 58.3974609375 Q 76.91943359375 59.2255859375 76.33349609375 59.6865234375 Q 75.74755859375 60.1474609375 74.66943359375 60.1474609375 L 74.24755859375 60.1474609375 L 74.24755859375 57.0224609375 ZM 88.15380859375 59.3037109375 Q 89.59130859375 59.3037109375 89.59130859375 61.2255859375 L 86.54443359375 61.2255859375 Q 86.71630859375 59.3037109375 88.15380859375 59.3037109375 ZM 110.173828125 59.3037109375 Q 111.611328125 59.3037109375 111.611328125 61.2255859375 L 108.564453125 61.2255859375 Q 108.736328125 59.3037109375 110.173828125 59.3037109375 ZM 43.81103515625 60.9912109375 Q 44.93603515625 60.9912109375 45.68603515625 61.5458984375 Q 46.43603515625 62.1005859375 46.43603515625 62.9443359375 Q 46.43603515625 63.8818359375 45.60791015625 64.2255859375 Q 45.17041015625 64.4130859375 43.71728515625 64.4130859375 L 43.43603515625 64.4130859375 L 43.43603515625 60.9912109375 ZM 74.62255859375 60.9912109375 Q 75.74755859375 60.9912109375 76.49755859375 61.5458984375 Q 77.24755859375 62.1005859375 77.24755859375 62.9443359375 Q 77.24755859375 63.8818359375 76.41943359375 64.2255859375 Q 75.98193359375 64.4130859375 74.52880859375 64.4130859375 L 74.24755859375 64.4130859375 L 74.24755859375 60.9912109375 ZM 95.958984375 62.0537109375 L 96.380859375 62.0693359375 L 96.380859375 63.8505859375 Q 95.537109375 64.5537109375 94.755859375 64.5537109375 Q 94.302734375 64.5537109375 93.982421875 64.2412109375 Q 93.662109375 63.9287109375 93.662109375 63.4755859375 Q 93.662109375 62.8349609375 94.294921875 62.4443359375 Q 94.927734375 62.0537109375 95.958984375 62.0537109375 ZM 42.12353515625 56.0224609375 L 42.12353515625 65.4130859375 L 44.88916015625 65.4130859375 Q 46.32666015625 65.4130859375 47.08447265625 64.8115234375 Q 47.84228515625 64.2099609375 47.84228515625 63.0693359375 Q 47.84228515625 61.2255859375 45.54541015625 60.5224609375 Q 47.46728515625 59.7880859375 47.46728515625 58.0849609375 Q 47.46728515625 57.0849609375 46.71728515625 56.5537109375 Q 45.96728515625 56.0224609375 44.56103515625 56.0224609375 ZM 53.03857421875 58.3662109375 Q 51.63232421875 58.3662109375 50.88232421875 59.8193359375 L 50.88232421875 58.5224609375 L 49.63232421875 58.5224609375 L 49.63232421875 65.4130859375 L 50.88232421875 65.4130859375 L 50.88232421875 60.8662109375 Q 51.67919921875 59.4599609375 52.86669921875 59.4599609375 Q 53.11669921875 59.4599609375 53.44482421875 59.5693359375 L 53.44482421875 58.3974609375 Q 53.22607421875 58.3662109375 53.03857421875 58.3662109375 ZM 54.95166015625 58.5224609375 L 54.95166015625 65.4130859375 L 56.20166015625 65.4130859375 L 56.20166015625 58.5224609375 ZM 65.3681640625 55.3974609375 L 65.3681640625 65.4130859375 L 66.6181640625 65.4130859375 L 66.6181640625 61.8818359375 L 69.8681640625 65.4130859375 L 71.4619140625 65.4130859375 L 68.1025390625 61.7412109375 L 70.8837890625 58.5224609375 L 69.5400390625 58.5224609375 L 66.6181640625 61.8662109375 L 66.6181640625 55.3974609375 ZM 72.93505859375 56.0224609375 L 72.93505859375 65.4130859375 L 75.70068359375 65.4130859375 Q 77.13818359375 65.4130859375 77.89599609375 64.8115234375 Q 78.65380859375 64.2099609375 78.65380859375 63.0693359375 Q 78.65380859375 61.2255859375 76.35693359375 60.5224609375 Q 78.27880859375 59.7880859375 78.27880859375 58.0849609375 Q 78.27880859375 57.0849609375 77.52880859375 56.5537109375 Q 76.77880859375 56.0224609375 75.37255859375 56.0224609375 ZM 83.85009765625 58.3662109375 Q 82.44384765625 58.3662109375 81.69384765625 59.8193359375 L 81.69384765625 58.5224609375 L 80.44384765625 58.5224609375 L 80.44384765625 65.4130859375 L 81.69384765625 65.4130859375 L 81.69384765625 60.8662109375 Q 82.49072265625 59.4599609375 83.67822265625 59.4599609375 Q 83.92822265625 59.4599609375 84.25634765625 59.5693359375 L 84.25634765625 58.3974609375 Q 84.03759765625 58.3662109375 83.85009765625 58.3662109375 ZM 100.18505859375 55.3974609375 L 100.18505859375 65.4130859375 L 101.43505859375 65.4130859375 L 101.43505859375 61.8818359375 L 104.68505859375 65.4130859375 L 106.27880859375 65.4130859375 L 102.91943359375 61.7412109375 L 105.70068359375 58.5224609375 L 104.35693359375 58.5224609375 L 101.43505859375 61.8662109375 L 101.43505859375 55.3974609375 ZM 118.43212890625 58.3662109375 Q 117.02587890625 58.3662109375 116.27587890625 59.8193359375 L 116.27587890625 58.5224609375 L 115.02587890625 58.5224609375 L 115.02587890625 65.4130859375 L 116.27587890625 65.4130859375 L 116.27587890625 60.8662109375 Q 117.07275390625 59.4599609375 118.26025390625 59.4599609375 Q 118.51025390625 59.4599609375 118.83837890625 59.5693359375 L 118.83837890625 58.3974609375 Q 118.61962890625 58.3662109375 118.43212890625 58.3662109375 ZM 61.61572265625 58.3662109375 Q 59.99072265625 58.3662109375 59.07666015625 59.3037109375 Q 58.16259765625 60.2412109375 58.16259765625 61.9287109375 Q 58.16259765625 63.5068359375 59.08447265625 64.5380859375 Q 60.00634765625 65.5693359375 61.39697265625 65.5693359375 Q 62.28759765625 65.5693359375 63.49072265625 65.2099609375 L 63.49072265625 64.1318359375 Q 62.58447265625 64.5693359375 61.72509765625 64.5693359375 Q 60.77197265625 64.5693359375 60.17041015625 63.8505859375 Q 59.56884765625 63.1318359375 59.56884765625 61.9599609375 Q 59.56884765625 60.7724609375 60.15478515625 60.0458984375 Q 60.74072265625 59.3193359375 61.69384765625 59.3193359375 Q 62.36572265625 59.3193359375 63.41259765625 59.6318359375 L 63.41259765625 58.5849609375 Q 62.42822265625 58.3662109375 61.61572265625 58.3662109375 ZM 88.23193359375 58.3662109375 Q 86.91943359375 58.3662109375 86.06787109375 59.3662109375 Q 85.21630859375 60.3662109375 85.21630859375 61.9287109375 Q 85.21630859375 63.5537109375 86.17724609375 64.5615234375 Q 87.13818359375 65.5693359375 88.66943359375 65.5693359375 Q 89.56005859375 65.5693359375 90.81005859375 65.1943359375 L 90.81005859375 64.1943359375 Q 89.68505859375 64.6162109375 88.90380859375 64.6162109375 Q 86.76318359375 64.6162109375 86.49755859375 62.1630859375 L 90.84130859375 62.1630859375 L 90.84130859375 61.7724609375 Q 90.84130859375 60.1318359375 90.16162109375 59.2490234375 Q 89.48193359375 58.3662109375 88.23193359375 58.3662109375 ZM 95.380859375 58.3662109375 Q 94.271484375 58.3662109375 93.005859375 58.8818359375 L 93.005859375 59.9130859375 Q 94.162109375 59.3037109375 95.146484375 59.3037109375 Q 96.380859375 59.3037109375 96.380859375 60.5068359375 L 96.380859375 61.3349609375 L 96.083984375 61.3349609375 Q 94.302734375 61.3349609375 93.357421875 61.9443359375 Q 92.412109375 62.5537109375 92.412109375 63.6787109375 Q 92.412109375 64.4912109375 92.974609375 65.0302734375 Q 93.537109375 65.5693359375 94.396484375 65.5693359375 Q 95.443359375 65.5693359375 96.568359375 64.5380859375 Q 96.802734375 65.5693359375 97.677734375 65.5693359375 Q 98.193359375 65.5693359375 98.615234375 65.3662109375 L 98.521484375 64.6787109375 Q 98.365234375 64.6943359375 98.287109375 64.6943359375 Q 97.630859375 64.6943359375 97.630859375 63.6318359375 L 97.630859375 60.5068359375 Q 97.630859375 59.4130859375 97.083984375 58.8896484375 Q 96.537109375 58.3662109375 95.380859375 58.3662109375 ZM 110.251953125 58.3662109375 Q 108.939453125 58.3662109375 108.087890625 59.3662109375 Q 107.236328125 60.3662109375 107.236328125 61.9287109375 Q 107.236328125 63.5537109375 108.197265625 64.5615234375 Q 109.158203125 65.5693359375 110.689453125 65.5693359375 Q 111.580078125 65.5693359375 112.830078125 65.1943359375 L 112.830078125 64.1943359375 Q 111.705078125 64.6162109375 110.923828125 64.6162109375 Q 108.783203125 64.6162109375 108.517578125 62.1630859375 L 112.861328125 62.1630859375 L 112.861328125 61.7724609375 Q 112.861328125 60.1318359375 112.181640625 59.2490234375 Q 111.501953125 58.3662109375 110.251953125 58.3662109375 Z"
		fill="rgb(0,0,0)"
		stroke-linecap="square" 
		stroke-miterLimit="10.0" 
		stroke-width="0.0"
	/>
	<!-- de.fxdiagram.core.XConnection -->
	<path d="M 322.20001220703125 209.0 L 320.20001220703125 279.3999938964844"
		fill="gray"
		stroke="rgb(0,0,0)"
		stroke-linecap="square" 
		stroke-miterLimit="10.0" 
		stroke-width="1.5" 
	/>
	<!-- javafx.scene.text.Text -->
	<path d="M 307.58197021484375 230.00555419921875 L 307.5464782714844 231.2550506591797 L 317.5580749511719 231.53945922851562 L 317.59356689453125 230.28997802734375 L 307.58197021484375 230.00555419921875 ZM 313.13720703125 234.83172607421875 Q 313.2049865722656 234.83172607421875 313.2752990722656 234.83372497558594 L 313.18878173828125 237.87936401367188 Q 311.2725524902344 237.65298461914062 311.3133850097656 236.216064453125 Q 311.3526916503906 234.83172607421875 313.13720703125 234.83172607421875 ZM 313.6427307128906 233.59666442871094 Q 312.1575622558594 233.59666442871094 311.31573486328125 234.20751953125 Q 310.4139709472656 234.8618621826172 310.37847900390625 236.11135864257812 Q 310.3411865234375 237.42332458496094 311.3166198730469 238.3029327392578 Q 312.2920227050781 239.18255615234375 313.8539123535156 239.2269287109375 Q 313.9305419921875 239.22911071777344 314.005859375 239.22911071777344 Q 315.5270690917969 239.22911071777344 316.512939453125 238.3411407470703 Q 317.5476379394531 237.40921020507812 317.59112548828125 235.8785858154297 Q 317.61639404296875 234.98831176757812 317.2770690917969 233.72816467285156 L 316.2774658203125 233.69976806640625 L 316.2774658203125 233.69976806640625 Q 316.6672058105469 234.8363037109375 316.64501953125 235.6172332763672 Q 316.584228515625 237.75698852539062 314.12457275390625 237.95285034179688 L 314.2479248046875 233.61085510253906 L 313.8574523925781 233.59976196289062 Q 313.7484436035156 233.59666442871094 313.6427307128906 233.59666442871094 ZM 313.5328063964844 241.9662628173828 Q 313.62890625 241.9662628173828 313.7290954589844 241.9691162109375 Q 316.4779968261719 242.04721069335938 316.4269714355469 243.84336853027344 Q 316.4021301269531 244.71800231933594 315.51556396484375 245.66197204589844 L 312.344970703125 245.57188415527344 Q 311.23321533203125 244.53990173339844 311.262939453125 243.4934539794922 Q 311.30633544921875 241.9662628173828 313.5328063964844 241.9662628173828 ZM 313.4530029296875 240.61964416503906 Q 312.008544921875 240.61964416503906 311.1385192871094 241.270263671875 Q 310.21221923828125 241.96299743652344 310.17718505859375 243.19686889648438 Q 310.13323974609375 244.7431182861328 311.5640563964844 245.54969787597656 L 307.1439514160156 245.42413330078125 L 307.10845947265625 246.6736297607422 L 317.1981506347656 246.96026611328125 L 317.22918701171875 245.86695861816406 L 316.3746032714844 245.68637084960938 Q 317.3348083496094 244.90081787109375 317.3694152832031 243.68255615234375 Q 317.4071350097656 242.35496520996094 316.3837585449219 241.51307678222656 Q 315.3603820800781 240.67117309570312 313.6423034667969 240.6223602294922 Q 313.54644775390625 240.61964416503906 313.4530029296875 240.61964416503906 ZM 313.66961669921875 250.66575622558594 L 315.45013427734375 250.71633911132812 Q 316.1290283203125 251.57972717285156 316.1068420410156 252.36065673828125 Q 316.0939636230469 252.8135986328125 315.7724914550781 253.12490844726562 Q 315.4637756347656 253.42385864257812 315.0338134765625 253.42385864257812 Q 315.01605224609375 253.42385864257812 314.9980773925781 253.42335510253906 Q 314.35772705078125 253.4051513671875 313.9852294921875 252.76150512695312 Q 313.61273193359375 252.11785888671875 313.64202880859375 251.08702087402344 L 313.66961669921875 250.66575622558594 ZM 317.0285949707031 248.52590942382812 L 316.3387145996094 248.60009765625 Q 316.34991455078125 248.75672912597656 316.3476867675781 248.83482360839844 Q 316.3298645019531 249.4619598388672 315.3583679199219 249.4619598388672 Q 315.3136901855469 249.4619598388672 315.2669677734375 249.46063232421875 L 312.14324951171875 249.37188720703125 Q 312.0829162597656 249.37017822265625 312.0242919921875 249.37017822265625 Q 311.02020263671875 249.37017822265625 310.51116943359375 249.87261962890625 Q 309.972412109375 250.4044189453125 309.9395751953125 251.56019592285156 Q 309.9080810546875 252.66912841796875 310.3875427246094 253.94888305664062 L 311.41839599609375 253.97816467285156 Q 310.84210205078125 252.80508422851562 310.87005615234375 251.82110595703125 Q 310.9041442871094 250.62046813964844 312.0437927246094 250.62046813964844 Q 312.0753479003906 250.62046813964844 312.1077575683594 250.6213836669922 L 312.935546875 250.64491271972656 L 312.9270935058594 250.94166564941406 Q 312.87652587890625 252.72219848632812 313.45880126953125 253.68443298339844 Q 314.04107666015625 254.64666748046875 315.1656494140625 254.67861938476562 Q 315.1985168457031 254.67955017089844 315.23095703125 254.67955017089844 Q 316.0002746582031 254.67955017089844 316.5326232910156 254.15472412109375 Q 317.0874328613281 253.60775756835938 317.1118469238281 252.7487335205078 Q 317.1415710449219 251.7022705078125 316.1427001953125 250.54844665527344 Q 317.18017578125 250.34344482421875 317.20501708984375 249.4687957763672 Q 317.21966552734375 248.95338439941406 317.0285949707031 248.52590942382812 ZM 306.8333740234375 256.35675048828125 L 306.7978820800781 257.6062316894531 L 316.8094482421875 257.8906555175781 L 316.844970703125 256.6411437988281 L 306.8333740234375 256.35675048828125 Z"
		fill="rgb(0,0,0)"
		stroke-linecap="square" 
		stroke-miterLimit="10.0" 
		stroke-width="0.0"
	/>
	<defs>
		<linearGradient id="Gradient1"
			gradientUnits="objectBoundingBox"
			spreadMethod="no_cycle" >
			<stop offset="0.0%" stop-color="rgb(153,153,153)" />
			<stop offset="100.0%" stop-color="rgb(229,229,229)" />
		</linearGradient>
		<linearGradient id="Gradient2"
			gradientUnits="objectBoundingBox"
			spreadMethod="no_cycle" >
			<stop offset="0.0%" stop-color="rgb(153,153,153)" />
			<stop offset="100.0%" stop-color="rgb(229,229,229)" />
		</linearGradient>
		<linearGradient id="Gradient3"
			gradientUnits="objectBoundingBox"
			spreadMethod="no_cycle" >
			<stop offset="0.0%" stop-color="rgb(153,153,153)" />
			<stop offset="100.0%" stop-color="rgb(229,229,229)" />
		</linearGradient>
	</defs>
</svg>
