<?xml version="1.0" standalone="no"?>
<!DOCTYPE svg PUBLIC "-//W3C//DTD SVG 1.1//EN" 
	"http://www.w3.org/Graphics/SVG/1.1/DTD/svg11.dtd">
<svg viewBox="0.0 0.0 365.0 319.0"
	xmlns="http://www.w3.org/2000/svg" version="1.1">
	<!-- javafx.scene.text.Text -->
	<path d="M 408.4660339355469 173.7133026123047 Q 410.725341796875 173.7133026123047 410.725341796875 176.73391723632812 L 405.93658447265625 176.73391723632812 Q 406.20672607421875 173.7133026123047 408.4660339355469 173.7133026123047 ZM 364.97412109375 173.7133026123047 Q 368.0438537597656 173.7133026123047 368.0438537597656 177.8881378173828 Q 368.0438537597656 182.0875244140625 364.9250183105469 182.0875244140625 Q 361.87982177734375 182.0875244140625 361.87982177734375 177.8881378173828 Q 361.87982177734375 173.7133026123047 364.97412109375 173.7133026123047 ZM 391.2364196777344 172.23983764648438 Q 389.0262145996094 172.23983764648438 387.8474426269531 174.52371215820312 L 387.8474426269531 172.48541259765625 L 385.8828125 172.48541259765625 L 385.8828125 183.31541442871094 L 387.8474426269531 183.31541442871094 L 387.8474426269531 176.16908264160156 Q 389.0998840332031 173.95887756347656 390.9662780761719 173.95887756347656 Q 391.35919189453125 173.95887756347656 391.8749084472656 174.1307830810547 L 391.8749084472656 172.28895568847656 Q 391.5310974121094 172.23983764648438 391.2364196777344 172.23983764648438 ZM 353.64990234375 172.23983764648438 Q 351.9062805175781 172.23983764648438 350.8994140625 173.0502471923828 Q 349.8925476074219 173.86065673828125 349.8925476074219 175.28500366210938 Q 349.8925476074219 177.27418518066406 352.4465637207031 178.33018493652344 L 353.60076904296875 178.8213348388672 Q 355.1479187011719 179.48439025878906 355.1479187011719 180.49127197265625 Q 355.1479187011719 181.1788787841797 354.5953674316406 181.63320922851562 Q 354.0428161621094 182.0875244140625 353.18328857421875 182.0875244140625 Q 351.7589416503906 182.0875244140625 349.8434143066406 181.12977600097656 L 349.8434143066406 182.94705200195312 Q 351.7589416503906 183.5609893798828 353.109619140625 183.5609893798828 Q 354.8777770996094 183.5609893798828 355.99517822265625 182.64007568359375 Q 357.112548828125 181.7191619873047 357.112548828125 180.2947998046875 Q 357.112548828125 179.16514587402344 356.4494934082031 178.41612243652344 Q 355.7864074707031 177.6671142578125 354.1901550292969 176.9794921875 L 353.232421875 176.58657836914062 Q 351.78350830078125 175.97262573242188 351.78350830078125 175.0885467529297 Q 351.78350830078125 173.7133026123047 353.6990051269531 173.7133026123047 Q 354.6567687988281 173.7133026123047 356.3021240234375 174.2044677734375 L 356.3021240234375 172.55908203125 L 355.8846435546875 172.48541259765625 Q 354.55853271484375 172.23983764648438 353.64990234375 172.23983764648438 ZM 364.97412109375 172.23983764648438 Q 362.56744384765625 172.23983764648438 361.179931640625 173.76242065429688 Q 359.79241943359375 175.28500366210938 359.79241943359375 177.8881378173828 Q 359.79241943359375 180.49127197265625 361.179931640625 182.026123046875 Q 362.56744384765625 183.5609893798828 364.90045166015625 183.5609893798828 Q 367.3316650390625 183.5609893798828 368.7314758300781 182.05068969726562 Q 370.1312561035156 180.54037475585938 370.1312561035156 177.8881378173828 Q 370.1312561035156 175.28500366210938 368.7437438964844 173.76242065429688 Q 367.3562316894531 172.23983764648438 364.97412109375 172.23983764648438 ZM 373.0797424316406 172.48541259765625 L 373.0797424316406 180.27024841308594 Q 373.0797424316406 181.76828002929688 373.9147033691406 182.6646270751953 Q 374.7496643066406 183.5609893798828 376.17401123046875 183.5609893798828 Q 378.4087829589844 183.5609893798828 379.9804992675781 181.27711486816406 L 379.9804992675781 183.31541442871094 L 381.94512939453125 183.31541442871094 L 381.94512939453125 172.48541259765625 L 379.9804992675781 172.48541259765625 L 379.9804992675781 179.5089569091797 Q 378.38421630859375 181.8665008544922 376.5915222167969 181.8665008544922 Q 375.75653076171875 181.8665008544922 375.40045166015625 181.3507843017578 Q 375.04437255859375 180.8350830078125 375.04437255859375 179.63174438476562 L 375.04437255859375 172.48541259765625 ZM 398.81097412109375 172.23983764648438 Q 396.2569580078125 172.23983764648438 394.8203125 173.7133026123047 Q 393.3836975097656 175.18678283691406 393.3836975097656 177.83901977539062 Q 393.3836975097656 180.31936645507812 394.8326110839844 181.940185546875 Q 396.2815246582031 183.5609893798828 398.4671630859375 183.5609893798828 Q 399.866943359375 183.5609893798828 401.7579040527344 182.9961700439453 L 401.7579040527344 181.3016815185547 Q 400.33355712890625 181.98928833007812 398.9828796386719 181.98928833007812 Q 397.48486328125 181.98928833007812 396.53936767578125 180.85963439941406 Q 395.5939025878906 179.72998046875 395.5939025878906 177.8881378173828 Q 395.5939025878906 176.02174377441406 396.5148010253906 174.8798065185547 Q 397.43572998046875 173.7378692626953 398.9337463378906 173.7378692626953 Q 399.98974609375 173.7378692626953 401.6351318359375 174.22901916503906 L 401.6351318359375 172.58364868164062 Q 400.0879821777344 172.23983764648438 398.81097412109375 172.23983764648438 ZM 408.5888366699219 172.23983764648438 Q 406.5259704589844 172.23983764648438 405.18756103515625 173.81153869628906 Q 403.8491516113281 175.38323974609375 403.8491516113281 177.83901977539062 Q 403.8491516113281 180.39303588867188 405.3594665527344 181.97702026367188 Q 406.8697814941406 183.5609893798828 409.27642822265625 183.5609893798828 Q 410.6762390136719 183.5609893798828 412.640869140625 182.9716033935547 L 412.640869140625 181.39990234375 Q 410.8727111816406 182.06297302246094 409.6448059082031 182.06297302246094 Q 406.2803955078125 182.06297302246094 405.8629150390625 178.20738220214844 L 412.6899719238281 178.20738220214844 L 412.6899719238281 177.59344482421875 Q 412.6899719238281 175.01487731933594 411.6217041015625 173.62734985351562 Q 410.5534362792969 172.23983764648438 408.5888366699219 172.23983764648438 Z"
		fill="rgb(0,0,0)"
		stroke-linecap="square" 
		stroke-miterLimit="10.0" 
		stroke-width="0.0"
	/>
	<!-- javafx.scene.text.Text -->
	<path d="M 394.27850341796875 346.6004333496094 Q 396.537841796875 346.6004333496094 396.537841796875 349.62103271484375 L 391.7490539550781 349.62103271484375 Q 392.0191955566406 346.6004333496094 394.27850341796875 346.6004333496094 ZM 381.90673828125 346.6004333496094 Q 383.4293212890625 346.6004333496094 384.73089599609375 347.95111083984375 L 384.73089599609375 352.4451904296875 Q 383.2328796386719 354.2379150390625 381.5138244628906 354.2379150390625 Q 379.0089111328125 354.2379150390625 379.0089111328125 350.6770324707031 Q 379.0089111328125 348.78607177734375 379.7825012207031 347.6932373046875 Q 380.5560607910156 346.6004333496094 381.90673828125 346.6004333496094 ZM 362.77850341796875 350.922607421875 L 363.4415588378906 350.9471435546875 L 363.4415588378906 353.7467346191406 Q 362.1154479980469 354.8518371582031 360.8875427246094 354.8518371582031 Q 360.17535400390625 354.8518371582031 359.67193603515625 354.3606872558594 Q 359.1684875488281 353.8695373535156 359.1684875488281 353.1573486328125 Q 359.1684875488281 352.1504821777344 360.1630859375 351.5365295410156 Q 361.1576843261719 350.922607421875 362.77850341796875 350.922607421875 ZM 374.77423095703125 345.126953125 Q 372.56402587890625 345.126953125 371.38525390625 347.41082763671875 L 371.38525390625 345.3725280761719 L 369.4206237792969 345.3725280761719 L 369.4206237792969 356.2025451660156 L 371.38525390625 356.2025451660156 L 371.38525390625 349.05621337890625 Q 372.6376953125 346.84600830078125 374.50408935546875 346.84600830078125 Q 374.8970031738281 346.84600830078125 375.4127197265625 347.0179138183594 L 375.4127197265625 345.1760559082031 Q 375.06890869140625 345.126953125 374.77423095703125 345.126953125 ZM 352.53326416015625 343.21142578125 L 350.56866455078125 343.40789794921875 L 350.56866455078125 345.3725280761719 L 349.21795654296875 345.3725280761719 L 349.21795654296875 346.84600830078125 L 350.56866455078125 346.84600830078125 L 350.56866455078125 353.20648193359375 Q 350.56866455078125 354.72906494140625 351.4158935546875 355.5885925292969 Q 352.2631530761719 356.4481201171875 353.7366027832031 356.4481201171875 Q 354.4242248535156 356.4481201171875 355.3328552246094 356.2025451660156 L 355.3328552246094 354.8518371582031 Q 354.7680358886719 354.9746398925781 354.3751220703125 354.9746398925781 Q 352.53326416015625 354.9746398925781 352.53326416015625 352.8381042480469 L 352.53326416015625 346.84600830078125 L 355.3819885253906 346.84600830078125 L 355.3819885253906 345.3725280761719 L 352.53326416015625 345.3725280761719 L 352.53326416015625 343.21142578125 ZM 361.8698425292969 345.126953125 Q 360.1262512207031 345.126953125 358.1370544433594 345.9373474121094 L 358.1370544433594 347.55816650390625 Q 359.954345703125 346.6004333496094 361.5014953613281 346.6004333496094 Q 363.4415588378906 346.6004333496094 363.4415588378906 348.4913635253906 L 363.4415588378906 349.7929382324219 L 362.9749450683594 349.7929382324219 Q 360.17535400390625 349.7929382324219 358.6896057128906 350.7507019042969 Q 357.203857421875 351.70843505859375 357.203857421875 353.47662353515625 Q 357.203857421875 354.7536315917969 358.08795166015625 355.6008605957031 Q 358.9720458984375 356.4481201171875 360.3227233886719 356.4481201171875 Q 361.96807861328125 356.4481201171875 363.73626708984375 354.8273010253906 Q 364.1046142578125 356.4481201171875 365.4798583984375 356.4481201171875 Q 366.2902526855469 356.4481201171875 366.9533386230469 356.12884521484375 L 366.80596923828125 355.0483093261719 Q 366.5603942871094 355.0728759765625 366.4376220703125 355.0728759765625 Q 365.40618896484375 355.0728759765625 365.40618896484375 353.4029541015625 L 365.40618896484375 348.4913635253906 Q 365.40618896484375 346.7723388671875 364.5466613769531 345.94964599609375 Q 363.6871337890625 345.126953125 361.8698425292969 345.126953125 ZM 394.40130615234375 345.126953125 Q 392.33843994140625 345.126953125 391.00006103515625 346.6986389160156 Q 389.6616516113281 348.2703552246094 389.6616516113281 350.72613525390625 Q 389.6616516113281 353.2801513671875 391.1719665527344 354.8641357421875 Q 392.6822509765625 356.4481201171875 395.08892822265625 356.4481201171875 Q 396.48870849609375 356.4481201171875 398.4533386230469 355.8587341308594 L 398.4533386230469 354.2870178222656 Q 396.6851806640625 354.9500732421875 395.4573059082031 354.9500732421875 Q 392.0928649902344 354.9500732421875 391.6753845214844 351.0945129394531 L 398.5024719238281 351.0945129394531 L 398.5024719238281 350.4805603027344 Q 398.5024719238281 347.9019775390625 397.4342041015625 346.51446533203125 Q 396.3659362792969 345.126953125 394.40130615234375 345.126953125 ZM 403.9427795410156 343.21142578125 L 401.9781494140625 343.40789794921875 L 401.9781494140625 345.3725280761719 L 400.6274719238281 345.3725280761719 L 400.6274719238281 346.84600830078125 L 401.9781494140625 346.84600830078125 L 401.9781494140625 353.20648193359375 Q 401.9781494140625 354.72906494140625 402.8254089355469 355.5885925292969 Q 403.67266845703125 356.4481201171875 405.1461181640625 356.4481201171875 Q 405.833740234375 356.4481201171875 406.74237060546875 356.2025451660156 L 406.74237060546875 354.8518371582031 Q 406.17755126953125 354.9746398925781 405.7846374511719 354.9746398925781 Q 403.9427795410156 354.9746398925781 403.9427795410156 352.8381042480469 L 403.9427795410156 346.84600830078125 L 406.79150390625 346.84600830078125 L 406.79150390625 345.3725280761719 L 403.9427795410156 345.3725280761719 L 403.9427795410156 343.21142578125 ZM 381.612060546875 345.126953125 Q 379.5491943359375 345.126953125 378.2353515625 346.6863708496094 Q 376.9215087890625 348.24578857421875 376.9215087890625 350.72613525390625 Q 376.9215087890625 353.1082458496094 378.0757141113281 354.5325927734375 Q 379.2299499511719 355.9569396972656 381.1700134277344 355.9569396972656 Q 383.6503601074219 355.9569396972656 384.73089599609375 353.6730651855469 L 384.73089599609375 355.3921203613281 Q 384.73089599609375 358.9039001464844 381.41558837890625 358.9039001464844 Q 379.74566650390625 358.9039001464844 378.0511779785156 358.0934753417969 L 377.83013916015625 359.8125305175781 Q 379.5491943359375 360.3773498535156 381.4646911621094 360.3773498535156 Q 384.16607666015625 360.3773498535156 385.4430847167969 359.02667236328125 Q 386.1798095703125 358.2408447265625 386.449951171875 357.012939453125 Q 386.7200927734375 355.7850341796875 386.7200927734375 353.2555847167969 L 386.7200927734375 345.3725280761719 L 384.73089599609375 345.3725280761719 L 384.73089599609375 346.6004333496094 Q 383.4293212890625 345.126953125 381.612060546875 345.126953125 Z"
		fill="rgb(0,0,0)"
		stroke-linecap="square" 
		stroke-miterLimit="10.0" 
		stroke-width="0.0"
	/>
	<!-- javafx.scene.image.ImageView not yet implemented -->
	<!-- javafx.scene.media.MediaView not yet implemented -->
	<!-- javafx.scene.image.ImageView not yet implemented -->
	<!-- javafx.scene.image.ImageView not yet implemented -->
	<!-- javafx.scene.image.ImageView not yet implemented -->
	<!-- javafx.scene.image.ImageView not yet implemented -->
	<!-- javafx.scene.image.ImageView not yet implemented -->
	<!-- javafx.scene.image.ImageView not yet implemented -->
	<!-- javafx.scene.image.ImageView not yet implemented -->
	<!-- javafx.scene.image.ImageView not yet implemented -->
	<!-- javafx.scene.image.ImageView not yet implemented -->
	<!-- javafx.scene.image.ImageView not yet implemented -->
	<!-- javafx.scene.image.ImageView not yet implemented -->
	<!-- javafx.scene.image.ImageView not yet implemented -->
	<!-- javafx.scene.image.ImageView not yet implemented -->
	<!-- javafx.scene.image.ImageView not yet implemented -->
	<!-- javafx.scene.image.ImageView not yet implemented -->
	<!-- javafx.scene.image.ImageView not yet implemented -->
	<!-- javafx.scene.image.ImageView not yet implemented -->
	<!-- javafx.scene.image.ImageView not yet implemented -->
	<!-- javafx.scene.image.ImageView not yet implemented -->
	<!-- javafx.scene.image.ImageView not yet implemented -->
	<!-- javafx.scene.image.ImageView not yet implemented -->
	<!-- javafx.scene.image.ImageView not yet implemented -->
	<!-- javafx.scene.image.ImageView not yet implemented -->
	<!-- javafx.scene.image.ImageView not yet implemented -->
	<!-- javafx.scene.image.ImageView not yet implemented -->
	<!-- javafx.scene.image.ImageView not yet implemented -->
	<!-- javafx.scene.image.ImageView not yet implemented -->
	<!-- javafx.scene.image.ImageView not yet implemented -->
	<!-- javafx.scene.image.ImageView not yet implemented -->
	<!-- javafx.scene.image.ImageView not yet implemented -->
	<!-- javafx.scene.image.ImageView not yet implemented -->
	<!-- javafx.scene.image.ImageView not yet implemented -->
	<!-- javafx.scene.image.ImageView not yet implemented -->
	<!-- javafx.scene.image.ImageView not yet implemented -->
	<!-- javafx.scene.image.ImageView not yet implemented -->
	<!-- javafx.scene.image.ImageView not yet implemented -->
	<!-- javafx.scene.image.ImageView not yet implemented -->
	<!-- javafx.scene.image.ImageView not yet implemented -->
	<!-- javafx.scene.image.ImageView not yet implemented -->
	<!-- javafx.scene.image.ImageView not yet implemented -->
	<!-- javafx.scene.image.ImageView not yet implemented -->
	<!-- javafx.scene.image.ImageView not yet implemented -->
	<!-- javafx.scene.image.ImageView not yet implemented -->
	<!-- javafx.scene.image.ImageView not yet implemented -->
	<!-- javafx.scene.image.ImageView not yet implemented -->
	<!-- javafx.scene.image.ImageView not yet implemented -->
	<!-- javafx.scene.image.ImageView not yet implemented -->
	<!-- javafx.scene.image.ImageView not yet implemented -->
	<!-- javafx.scene.image.ImageView not yet implemented -->
	<!-- javafx.scene.image.ImageView not yet implemented -->
	<!-- javafx.scene.image.ImageView not yet implemented -->
	<!-- javafx.scene.image.ImageView not yet implemented -->
	<!-- javafx.scene.image.ImageView not yet implemented -->
	<!-- javafx.scene.image.ImageView not yet implemented -->
	<!-- javafx.scene.image.ImageView not yet implemented -->
	<!-- javafx.scene.image.ImageView not yet implemented -->
	<!-- javafx.scene.image.ImageView not yet implemented -->
	<!-- javafx.scene.image.ImageView not yet implemented -->
	<!-- javafx.scene.image.ImageView not yet implemented -->
	<!-- javafx.scene.image.ImageView not yet implemented -->
	<!-- javafx.scene.image.ImageView not yet implemented -->
	<!-- javafx.scene.image.ImageView not yet implemented -->
	<!-- javafx.scene.image.ImageView not yet implemented -->
	<!-- javafx.scene.image.ImageView not yet implemented -->
	<!-- javafx.scene.image.ImageView not yet implemented -->
	<!-- javafx.scene.image.ImageView not yet implemented -->
	<!-- javafx.scene.image.ImageView not yet implemented -->
	<!-- javafx.scene.image.ImageView not yet implemented -->
	<!-- javafx.scene.image.ImageView not yet implemented -->
	<!-- javafx.scene.image.ImageView not yet implemented -->
	<!-- javafx.scene.image.ImageView not yet implemented -->
	<!-- javafx.scene.image.ImageView not yet implemented -->
	<!-- javafx.scene.image.ImageView not yet implemented -->
	<!-- javafx.scene.image.ImageView not yet implemented -->
	<!-- javafx.scene.image.ImageView not yet implemented -->
	<!-- javafx.scene.image.ImageView not yet implemented -->
	<!-- javafx.scene.image.ImageView not yet implemented -->
	<!-- javafx.scene.image.ImageView not yet implemented -->
	<!-- javafx.scene.image.ImageView not yet implemented -->
	<!-- javafx.scene.image.ImageView not yet implemented -->
	<!-- javafx.scene.image.ImageView not yet implemented -->
	<!-- javafx.scene.image.ImageView not yet implemented -->
	<!-- javafx.scene.image.ImageView not yet implemented -->
	<!-- javafx.scene.image.ImageView not yet implemented -->
	<!-- javafx.scene.image.ImageView not yet implemented -->
	<!-- javafx.scene.image.ImageView not yet implemented -->
	<!-- javafx.scene.image.ImageView not yet implemented -->
	<!-- javafx.scene.image.ImageView not yet implemented -->
	<!-- javafx.scene.image.ImageView not yet implemented -->
	<!-- de.fxdiagram.core.XConnection -->
	<path d="M 322.20001220703125 209.0 L 320.20001220703125 279.3999938964844"
		transform="matrix(1.5717010498046873,0.0,0.0,1.5717010498046873,-125.20252391068169,-121.77232426084197)" 
		fill="gray"
		stroke="rgb(0,0,0)"
		stroke-linecap="square" 
		stroke-miterLimit="10.0" 
		stroke-width="0.9543799695154511" 
	/>
	<!-- de.fxdiagram.core.XConnectionLabel -->
	<path d="M 358.2243957519531 239.72764587402344 L 358.1686096191406 241.6914825439453 L 373.9038391113281 242.1385040283203 L 373.9596252441406 240.17466735839844 L 358.2243957519531 239.72764587402344 ZM 366.9555969238281 247.3129425048828 Q 367.0621032714844 247.3129425048828 367.1725769042969 247.3160858154297 L 367.0365905761719 252.10293579101562 Q 364.0248718261719 251.74713134765625 364.0890197753906 249.4887237548828 Q 364.1508483886719 247.3129425048828 366.9555969238281 247.3129425048828 ZM 367.7500305175781 245.37179565429688 Q 365.4158020019531 245.37179565429688 364.0927429199219 246.3318634033203 Q 362.6754455566406 247.3603057861328 362.6196594238281 249.3241424560547 Q 362.5610656738281 251.38616943359375 364.0941162109375 252.76866149902344 Q 365.627197265625 254.15115356445312 368.08197021484375 254.22088623046875 Q 368.2024230957031 254.22430419921875 368.32080078125 254.22430419921875 Q 370.711669921875 254.22430419921875 372.2611999511719 252.82870483398438 Q 373.8874206542969 251.36398315429688 373.9557800292969 248.95828247070312 Q 373.9955139160156 247.55905151367188 373.462158203125 245.5784912109375 L 371.8910827636719 245.5338592529297 L 371.8910827636719 245.5338592529297 Q 372.503662109375 247.32012939453125 372.46881103515625 248.5475311279297 Q 372.3732604980469 251.9105987548828 368.50738525390625 252.21841430664062 L 368.7012634277344 245.39410400390625 L 368.0875549316406 245.3766632080078 Q 367.9162292480469 245.37179565429688 367.7500305175781 245.37179565429688 ZM 367.5773010253906 258.52630615234375 Q 367.7283630371094 258.52630615234375 367.8858337402344 258.5307922363281 Q 372.2062683105469 258.6535339355469 372.1260681152344 261.4765319824219 Q 372.0870056152344 262.8512268066406 370.6936340332031 264.3348388671875 L 365.7104187011719 264.1932678222656 Q 363.9630432128906 262.5712890625 364.009765625 260.92657470703125 Q 364.0779724121094 258.52630615234375 367.5773010253906 258.52630615234375 ZM 367.451904296875 256.4098205566406 Q 365.1816101074219 256.4098205566406 363.8142395019531 257.4324035644531 Q 362.3583679199219 258.52117919921875 362.30328369140625 260.46044921875 Q 362.2342224121094 262.89068603515625 364.4830017089844 264.1584167480469 L 357.53594970703125 263.9610595703125 L 357.48016357421875 265.92486572265625 L 373.338134765625 266.3753967285156 L 373.3869323730469 264.65704345703125 L 372.0437927246094 264.3731994628906 Q 373.55291748046875 263.1385498046875 373.6072998046875 261.22381591796875 Q 373.6665954589844 259.1372375488281 372.0581359863281 257.81402587890625 Q 370.44970703125 256.4908142089844 367.7494201660156 256.4140930175781 Q 367.5987548828125 256.4098205566406 367.451904296875 256.4098205566406 ZM 367.7923278808594 272.1993103027344 L 370.5907897949219 272.27880859375 Q 371.6578063964844 273.6357727050781 371.6229248046875 274.8631896972656 Q 371.6026916503906 275.5750732421875 371.0974426269531 276.0643615722656 Q 370.61224365234375 276.5342102050781 369.9365234375 276.5342102050781 Q 369.9085693359375 276.5342102050781 369.88031005859375 276.5334167480469 Q 368.87384033203125 276.50482177734375 368.28839111328125 275.4931945800781 Q 367.70294189453125 274.4815673828125 367.74896240234375 272.8614196777344 L 367.7923278808594 272.1993103027344 ZM 373.0716857910156 268.83612060546875 L 371.98736572265625 268.95269775390625 Q 372.00494384765625 269.1988830566406 372.00146484375 269.3216247558594 Q 371.97344970703125 270.3072814941406 370.4465637207031 270.3072814941406 Q 370.3763122558594 270.3072814941406 370.30291748046875 270.3052062988281 L 365.3933410644531 270.1657409667969 Q 365.2984924316406 270.1630554199219 365.206298828125 270.1630554199219 Q 363.62823486328125 270.1630554199219 362.8282165527344 270.9527282714844 Q 361.9814453125 271.7885437011719 361.9298400878906 273.6051025390625 Q 361.8803405761719 275.3479919433594 362.6339111328125 277.3594055175781 L 364.25408935546875 277.4054260253906 Q 363.34832763671875 275.5616760253906 363.39227294921875 274.0151672363281 Q 363.44586181640625 272.1281433105469 365.23699951171875 272.1281433105469 Q 365.28662109375 272.1281433105469 365.3375549316406 272.12957763671875 L 366.6385803222656 272.1665344238281 L 366.6253356933594 272.6329345703125 Q 366.54583740234375 275.4314270019531 367.46099853515625 276.9437561035156 Q 368.3761901855469 278.45611572265625 370.1436462402344 278.5063171386719 Q 370.1953125 278.5077819824219 370.2463073730469 278.5077819824219 Q 371.4554138183594 278.5077819824219 372.2921447753906 277.68292236328125 Q 373.1641540527344 276.8232421875 373.2025146484375 275.4731140136719 Q 373.2492370605469 273.8283996582031 371.6792907714844 272.0149230957031 Q 373.3099060058594 271.6927490234375 373.3489685058594 270.31805419921875 Q 373.3719787597656 269.5079650878906 373.0716857910156 268.83612060546875 ZM 357.0478210449219 281.1438293457031 L 356.99200439453125 283.107666015625 L 372.72723388671875 283.5546875 L 372.78302001953125 281.5908508300781 L 357.0478210449219 281.1438293457031 Z"
		fill="rgb(0,0,0)"
		stroke-linecap="square" 
		stroke-miterLimit="10.0" 
		stroke-width="0.0"
	/>
	<defs>
	</defs>
</svg>
