<?xml version="1.0" standalone="no"?>
<!DOCTYPE svg PUBLIC "-//W3C//DTD SVG 1.1//EN" 
	"http://www.w3.org/Graphics/SVG/1.1/DTD/svg11.dtd">
<svg viewBox="-34.63013458251953 -55.84004211425781 396.7333068847656 281.2764587402344"
	xmlns="http://www.w3.org/2000/svg" xmlns:xlink="http://www.w3.org/1999/xlink" version="1.1">
	<!-- de.fxdiagram.lib.shapes.RectangleBorderPane -->
	<rect
		transform="matrix(2.00982666015625,0.0,0.0,2.00982666015625,-33.424237887259984,-54.634144718068725)"  
		width="84.4" height="38.400000000000006"
		rx="12.0" ry="12.0"
		fill="url(#Gradient1)"
		stroke="rgb(128,128,128)"
		strokeWidth="1.2"
	/>
	<!-- javafx.scene.text.Text -->
	<path d="M 86.25769805908203 -18.449806213378906 Q 89.1468276977539 -18.449806213378906 89.1468276977539 -14.587170600891113 L 83.02313995361328 -14.587170600891113 Q 83.36857604980469 -18.449806213378906 86.25769805908203 -18.449806213378906 ZM 30.64202880859375 -18.449806213378906 Q 34.56747055053711 -18.449806213378906 34.56747055053711 -13.111204147338867 Q 34.56747055053711 -7.741199016571045 30.579221725463867 -7.741199016571045 Q 26.685182571411133 -7.741199016571045 26.685182571411133 -13.111204147338867 Q 26.685182571411133 -18.449806213378906 30.64202880859375 -18.449806213378906 ZM 64.22517395019531 -20.33401870727539 Q 61.39885330200195 -20.33401870727539 59.891483306884766 -17.413490295410156 L 59.891483306884766 -20.019983291625977 L 57.37919998168945 -20.019983291625977 L 57.37919998168945 -6.171021938323975 L 59.891483306884766 -6.171021938323975 L 59.891483306884766 -15.309452056884766 Q 61.493064880371094 -18.135770797729492 63.87973403930664 -18.135770797729492 Q 64.38218688964844 -18.135770797729492 65.04166412353516 -17.91594696044922 L 65.04166412353516 -20.271211624145508 Q 64.60201263427734 -20.33401870727539 64.22517395019531 -20.33401870727539 ZM 16.16107177734375 -20.33401870727539 Q 13.931419372558594 -20.33401870727539 12.643874168395996 -19.29770278930664 Q 11.356328964233398 -18.261384963989258 11.356328964233398 -16.439979553222656 Q 11.356328964233398 -13.896292686462402 14.622297286987305 -12.545940399169922 L 16.098264694213867 -11.917869567871094 Q 18.07668685913086 -11.069973945617676 18.07668685913086 -9.782428741455078 Q 18.07668685913086 -8.903129577636719 17.370107650756836 -8.322164535522461 Q 16.663528442382812 -7.741199016571045 15.564403533935547 -7.741199016571045 Q 13.742998123168945 -7.741199016571045 11.293521881103516 -8.965936660766602 L 11.293521881103516 -6.642075061798096 Q 13.742998123168945 -5.8569865226745605 15.470192909240723 -5.8569865226745605 Q 17.73124885559082 -5.8569865226745605 19.16010856628418 -7.034619331359863 Q 20.588970184326172 -8.212251663208008 20.588970184326172 -10.03365707397461 Q 20.588970184326172 -11.478219985961914 19.74107551574707 -12.436028480529785 Q 18.893178939819336 -13.39383602142334 16.85194969177246 -14.2731351852417 L 15.62721061706543 -14.775591850280762 Q 13.774401664733887 -15.560680389404297 13.774401664733887 -16.691207885742188 Q 13.774401664733887 -18.449806213378906 16.223878860473633 -18.449806213378906 Q 17.44861602783203 -18.449806213378906 19.552654266357422 -17.821735382080078 L 19.552654266357422 -19.92577362060547 L 19.0187931060791 -20.019983291625977 Q 17.323001861572266 -20.33401870727539 16.16107177734375 -20.33401870727539 ZM 30.64202880859375 -20.33401870727539 Q 27.564481735229492 -20.33401870727539 25.79018211364746 -18.386999130249023 Q 24.01588249206543 -16.439979553222656 24.01588249206543 -13.111204147338867 Q 24.01588249206543 -9.782428741455078 25.79018211364746 -7.819707870483398 Q 27.564481735229492 -5.8569865226745605 30.547819137573242 -5.8569865226745605 Q 33.656768798828125 -5.8569865226745605 35.44676971435547 -7.788304328918457 Q 37.23677444458008 -9.719621658325195 37.23677444458008 -13.111204147338867 Q 37.23677444458008 -16.439979553222656 35.46247100830078 -18.386999130249023 Q 33.68817138671875 -20.33401870727539 30.64202880859375 -20.33401870727539 ZM 41.00716018676758 -20.019983291625977 L 41.00716018676758 -10.06506061553955 Q 41.00716018676758 -8.149444580078125 42.07488250732422 -7.003215789794922 Q 43.142601013183594 -5.8569865226745605 44.96400833129883 -5.8569865226745605 Q 47.82172775268555 -5.8569865226745605 49.8315544128418 -8.777515411376953 L 49.8315544128418 -6.171021938323975 L 52.34383773803711 -6.171021938323975 L 52.34383773803711 -20.019983291625977 L 49.8315544128418 -20.019983291625977 L 49.8315544128418 -11.038570404052734 Q 47.79032516479492 -8.02383041381836 45.497867584228516 -8.02383041381836 Q 44.430145263671875 -8.02383041381836 43.974796295166016 -8.683304786682129 Q 43.51944351196289 -9.342779159545898 43.51944351196289 -10.881552696228027 L 43.51944351196289 -20.019983291625977 ZM 73.91120147705078 -20.33401870727539 Q 70.64523315429688 -20.33401870727539 68.8081283569336 -18.449806213378906 Q 66.97102355957031 -16.565593719482422 66.97102355957031 -13.17401123046875 Q 66.97102355957031 -10.002253532409668 68.8238296508789 -7.929620265960693 Q 70.6766357421875 -5.8569865226745605 73.47154998779297 -5.8569865226745605 Q 75.26155853271484 -5.8569865226745605 77.67962646484375 -6.579267978668213 L 77.67962646484375 -8.746111869812012 Q 75.85822296142578 -7.8668131828308105 74.13102722167969 -7.8668131828308105 Q 72.21540832519531 -7.8668131828308105 71.00637817382812 -9.311375617980957 Q 69.7973403930664 -10.755938529968262 69.7973403930664 -13.111204147338867 Q 69.7973403930664 -15.497873306274414 70.97496795654297 -16.95813751220703 Q 72.15260314941406 -18.41840362548828 74.06822204589844 -18.41840362548828 Q 75.41857147216797 -18.41840362548828 77.52261352539062 -17.790332794189453 L 77.52261352539062 -19.89436912536621 Q 75.544189453125 -20.33401870727539 73.91120147705078 -20.33401870727539 ZM 86.41471862792969 -20.33401870727539 Q 83.77682495117188 -20.33401870727539 82.0653305053711 -18.32419204711914 Q 80.35383605957031 -16.31436538696289 80.35383605957031 -13.17401123046875 Q 80.35383605957031 -9.908042907714844 82.28515625 -7.882514953613281 Q 84.21646881103516 -5.8569865226745605 87.29402160644531 -5.8569865226745605 Q 89.08402252197266 -5.8569865226745605 91.59630584716797 -6.610671520233154 L 91.59630584716797 -8.620497703552246 Q 89.33525085449219 -7.772602558135986 87.76506805419922 -7.772602558135986 Q 83.46278381347656 -7.772602558135986 82.92892456054688 -12.702958106994629 L 91.65911102294922 -12.702958106994629 L 91.65911102294922 -13.488046646118164 Q 91.65911102294922 -16.785419464111328 90.29305267333984 -18.55971908569336 Q 88.927001953125 -20.33401870727539 86.41471862792969 -20.33401870727539 Z"
		fill="rgb(0,0,0)"
		stroke-linecap="square" 
		stroke-miterLimit="10.0" 
		stroke-width="0.0"
	/>
	<!-- de.fxdiagram.lib.shapes.RectangleBorderPane -->
	<rect
		transform="matrix(2.00982666015625,0.0,0.0,2.00982666015625,-29.408609679086517,146.34852129755626)"  
		width="80.4" height="38.400000000000006"
		rx="12.0" ry="12.0"
		fill="url(#Gradient2)"
		stroke="rgb(128,128,128)"
		strokeWidth="1.2"
	/>
	<!-- javafx.scene.text.Text -->
	<path d="M 72.13091278076172 182.53285217285156 Q 75.0200424194336 182.53285217285156 75.0200424194336 186.39549255371094 L 68.89634704589844 186.39549255371094 Q 69.24179077148438 182.53285217285156 72.13091278076172 182.53285217285156 ZM 56.31039810180664 182.53285217285156 Q 58.25741958618164 182.53285217285156 59.92180633544922 184.2600555419922 L 59.92180633544922 190.00689697265625 Q 58.00619125366211 192.2993621826172 55.80794143676758 192.2993621826172 Q 52.60478210449219 192.2993621826172 52.60478210449219 187.745849609375 Q 52.60478210449219 185.32777404785156 53.593994140625 183.93031311035156 Q 54.58320617675781 182.53285217285156 56.31039810180664 182.53285217285156 ZM 31.849985122680664 188.05987548828125 L 32.697879791259766 188.09129333496094 L 32.697879791259766 191.67129516601562 Q 31.00208854675293 193.08444213867188 29.43191146850586 193.08444213867188 Q 28.521209716796875 193.08444213867188 27.8774356842041 192.4563751220703 Q 27.23366355895996 191.82830810546875 27.23366355895996 190.9176025390625 Q 27.23366355895996 189.63006591796875 28.50550651550293 188.844970703125 Q 29.77735137939453 188.05987548828125 31.849985122680664 188.05987548828125 ZM 47.189632415771484 180.64865112304688 Q 44.36331558227539 180.64865112304688 42.8559455871582 183.56918334960938 L 42.8559455871582 180.96267700195312 L 40.34366226196289 180.96267700195312 L 40.34366226196289 194.8116455078125 L 42.8559455871582 194.8116455078125 L 42.8559455871582 185.6732177734375 Q 44.457523345947266 182.84689331054688 46.84419250488281 182.84689331054688 Q 47.346649169921875 182.84689331054688 48.006126403808594 183.0667266845703 L 48.006126403808594 180.71145629882812 Q 47.56647491455078 180.64865112304688 47.189632415771484 180.64865112304688 ZM 18.74881935119629 178.1991729736328 L 16.236536026000977 178.4503936767578 L 16.236536026000977 180.96267700195312 L 14.5093412399292 180.96267700195312 L 14.5093412399292 182.84689331054688 L 16.236536026000977 182.84689331054688 L 16.236536026000977 190.98040771484375 Q 16.236536026000977 192.92742919921875 17.319957733154297 194.02655029296875 Q 18.40338134765625 195.1256866455078 20.287593841552734 195.1256866455078 Q 21.166893005371094 195.1256866455078 22.32882308959961 194.8116455078125 L 22.32882308959961 193.08444213867188 Q 21.606542587280273 193.24147033691406 21.10408592224121 193.24147033691406 Q 18.74881935119629 193.24147033691406 18.74881935119629 190.5093536376953 L 18.74881935119629 182.84689331054688 L 22.391630172729492 182.84689331054688 L 22.391630172729492 180.96267700195312 L 18.74881935119629 180.96267700195312 L 18.74881935119629 178.1991729736328 ZM 30.688053131103516 180.64865112304688 Q 28.458402633666992 180.64865112304688 25.914714813232422 181.68496704101562 L 25.914714813232422 183.75759887695312 Q 28.238576889038086 182.53285217285156 30.21700096130371 182.53285217285156 Q 32.697879791259766 182.53285217285156 32.697879791259766 184.950927734375 L 32.697879791259766 186.61532592773438 L 32.10121154785156 186.61532592773438 Q 28.521209716796875 186.61532592773438 26.621294021606445 187.84005737304688 Q 24.72138023376465 189.06478881835938 24.72138023376465 191.3258514404297 Q 24.72138023376465 192.95883178710938 25.85190773010254 194.04225158691406 Q 26.98243522644043 195.1256866455078 28.709630966186523 195.1256866455078 Q 30.81366729736328 195.1256866455078 33.07472229003906 193.05303955078125 Q 33.5457763671875 195.1256866455078 35.30437469482422 195.1256866455078 Q 36.34069061279297 195.1256866455078 37.1885871887207 194.71743774414062 L 37.00016403198242 193.33567810058594 Q 36.68613052368164 193.36708068847656 36.52911376953125 193.36708068847656 Q 35.21016311645508 193.36708068847656 35.21016311645508 191.2316436767578 L 35.21016311645508 184.950927734375 Q 35.21016311645508 182.752685546875 34.11103820800781 181.70066833496094 Q 33.01191711425781 180.64865112304688 30.688053131103516 180.64865112304688 ZM 72.28793334960938 180.64865112304688 Q 69.65003204345703 180.64865112304688 67.93854522705078 182.65847778320312 Q 66.22705078125 184.66830444335938 66.22705078125 187.80865478515625 Q 66.22705078125 191.07461547851562 68.15836334228516 193.10015869140625 Q 70.08968353271484 195.1256866455078 73.16722869873047 195.1256866455078 Q 74.95722961425781 195.1256866455078 77.46951293945312 194.3719940185547 L 77.46951293945312 192.36216735839844 Q 75.20845794677734 193.21006774902344 73.6382827758789 193.21006774902344 Q 69.33599853515625 193.21006774902344 68.80213928222656 188.2797088623047 L 77.5323257446289 188.2797088623047 L 77.5323257446289 187.49461364746094 Q 77.5323257446289 184.19725036621094 76.16626739501953 182.42294311523438 Q 74.80021667480469 180.64865112304688 72.28793334960938 180.64865112304688 ZM 84.48918914794922 178.1991729736328 L 81.9769058227539 178.4503936767578 L 81.9769058227539 180.96267700195312 L 80.24971008300781 180.96267700195312 L 80.24971008300781 182.84689331054688 L 81.9769058227539 182.84689331054688 L 81.9769058227539 190.98040771484375 Q 81.9769058227539 192.92742919921875 83.0603256225586 194.02655029296875 Q 84.14375305175781 195.1256866455078 86.02796173095703 195.1256866455078 Q 86.90726470947266 195.1256866455078 88.0691909790039 194.8116455078125 L 88.0691909790039 193.08444213867188 Q 87.34690856933594 193.24147033691406 86.84445190429688 193.24147033691406 Q 84.48918914794922 193.24147033691406 84.48918914794922 190.5093536376953 L 84.48918914794922 182.84689331054688 L 88.13200378417969 182.84689331054688 L 88.13200378417969 180.96267700195312 L 84.48918914794922 180.96267700195312 L 84.48918914794922 178.1991729736328 ZM 55.933555603027344 180.64865112304688 Q 53.295658111572266 180.64865112304688 51.615570068359375 182.6427764892578 Q 49.935482025146484 184.63690185546875 49.935482025146484 187.80865478515625 Q 49.935482025146484 190.85479736328125 51.41144561767578 192.67620849609375 Q 52.887413024902344 194.4976043701172 55.36829376220703 194.4976043701172 Q 58.5400505065918 194.4976043701172 59.92180633544922 191.5770721435547 L 59.92180633544922 193.77532958984375 Q 59.92180633544922 198.2660369873047 55.68232727050781 198.2660369873047 Q 53.5468864440918 198.2660369873047 51.380043029785156 197.22972106933594 L 51.097412109375 199.42796325683594 Q 53.295658111572266 200.15025329589844 55.74513626098633 200.15025329589844 Q 59.19952392578125 200.15025329589844 60.8325080871582 198.4230499267578 Q 61.77461624145508 197.4181365966797 62.12005615234375 195.84796142578125 Q 62.465492248535156 194.2777862548828 62.465492248535156 191.043212890625 L 62.465492248535156 180.96267700195312 L 59.92180633544922 180.96267700195312 L 59.92180633544922 182.53285217285156 Q 58.25741958618164 180.64865112304688 55.933555603027344 180.64865112304688 Z"
		fill="rgb(0,0,0)"
		stroke-linecap="square" 
		stroke-miterLimit="10.0" 
		stroke-width="0.0"
	/>
	<!-- javafx.scene.shape.CubicCurve -->
	<path d="M 95.50160217285156 38.69983673095703 C 201.7983856201172 84.98577117919922 201.7983856201172 109.95377349853516 93.49960327148438 119.49983978271484"
		transform="matrix(2.00982666015625,0.0,0.0,2.00982666015625,-54.53063790861183,-75.73700264073823)" 
		fill="none"
		stroke="rgb(0,0,0)"
		stroke-linecap="square" 
		stroke-miterLimit="10.0" 
		stroke-width="1.5" 
	/>
	<!-- javafx.scene.shape.Circle -->
	<path d="M 5.0 0.0 C 7.761423749153967 0.0 10.0 2.238576250846033 10.0 5.0 C 10.0 7.761423749153967 7.761423749153967 10.0 5.0 10.0 C 2.238576250846033 10.0 0.0 7.761423749153967 0.0 5.0 C 0.0 2.238576250846033 2.238576250846033 0.0 5.0 0.0 Z"
		transform="matrix(2.00982666015625,0.0,0.0,2.00982666015625,137.4110282260213,2.0429609648333127)" 
		fill="rgb(255,255,255)"
		stroke="rgb(255,0,0)"
		stroke-linecap="square" 
		stroke-miterLimit="10.0" 
	/>
	<!-- javafx.scene.shape.Circle -->
	<path d="M 5.0 0.0 C 7.761423749153967 0.0 10.0 2.238576250846033 10.0 5.0 C 10.0 7.761423749153967 7.761423749153967 10.0 5.0 10.0 C 2.238576250846033 10.0 0.0 7.761423749153967 0.0 5.0 C 0.0 2.238576250846033 2.238576250846033 0.0 5.0 0.0 Z"
		transform="matrix(2.00982666015625,0.0,0.0,2.00982666015625,351.04913748719133,95.06966600915503)" 
		fill="rgb(255,0,0)"
		stroke="rgb(255,0,0)"
		stroke-linecap="square" 
		stroke-miterLimit="10.0" 
	/>
	<!-- javafx.scene.shape.Circle -->
	<path d="M 5.0 0.0 C 7.761423749153967 0.0 10.0 2.238576250846033 10.0 5.0 C 10.0 7.761423749153967 7.761423749153967 10.0 5.0 10.0 C 2.238576250846033 10.0 0.0 7.761423749153967 0.0 5.0 C 0.0 2.238576250846033 2.238576250846033 0.0 5.0 0.0 Z"
		transform="matrix(2.00982666015625,0.0,0.0,2.00982666015625,351.04913748719133,145.25102272139947)" 
		fill="rgb(255,0,0)"
		stroke="rgb(255,0,0)"
		stroke-linecap="square" 
		stroke-miterLimit="10.0" 
	/>
	<!-- javafx.scene.shape.Circle -->
	<path d="M 5.0 0.0 C 7.761423749153967 0.0 10.0 2.238576250846033 10.0 5.0 C 10.0 7.761423749153967 7.761423749153967 10.0 5.0 10.0 C 2.238576250846033 10.0 0.0 7.761423749153967 0.0 5.0 C 0.0 2.238576250846033 2.238576250846033 0.0 5.0 0.0 Z"
		transform="matrix(2.00982666015625,0.0,0.0,2.00982666015625,133.38735746045,164.4369612389625)" 
		fill="rgb(255,255,255)"
		stroke="rgb(255,0,0)"
		stroke-linecap="square" 
		stroke-miterLimit="10.0" 
	/>
	<!-- javafx.scene.text.Text -->
	<path d="M 50.429542541503906 167.24749755859375 L 50.411598205566406 169.7597198486328 L 70.54075622558594 169.90350341796875 L 70.55870056152344 167.3912811279297 L 50.429542541503906 167.24749755859375 ZM 62.00303649902344 176.7056121826172 Q 62.03924560546875 176.7056121826172 62.075801849365234 176.70587158203125 L 62.03206253051758 182.8293914794922 Q 58.171993255615234 182.4563751220703 58.192626953125 179.56732177734375 Q 58.213069915771484 176.7056121826172 62.00303649902344 176.7056121826172 ZM 63.08051681518555 174.2010955810547 Q 59.865047454833984 174.2010955810547 58.111541748046875 175.5312957763672 Q 56.32752990722656 176.88462829589844 56.30958557128906 179.3968505859375 Q 56.29074478149414 182.03468322753906 58.28829574584961 183.76048278808594 Q 60.28584671020508 185.48629760742188 63.42612075805664 185.50872802734375 Q 63.46539306640625 185.50900268554688 63.50448989868164 185.50900268554688 Q 66.71652221679688 185.50900268554688 68.73127746582031 183.61524963378906 Q 70.77054595947266 181.69845581054688 70.79252624511719 178.62098693847656 Q 70.80531311035156 176.83102416992188 70.06959533691406 174.3134307861328 L 68.059814453125 174.299072265625 L 68.059814453125 174.299072265625 Q 68.89154052734375 176.5661163330078 68.88032531738281 178.13626098632812 Q 68.84959411621094 182.4384307861328 63.91555404663086 182.93707275390625 L 63.977909088134766 174.2071075439453 L 63.192840576171875 174.2014923095703 Q 63.13645935058594 174.2010955810547 63.08051681518555 174.2010955810547 ZM 63.188560485839844 191.02377319335938 Q 63.240257263183594 191.02377319335938 63.292510986328125 191.02413940429688 Q 68.81938934326172 191.06361389160156 68.79359436035156 194.6749267578125 Q 68.78103637695312 196.43348693847656 67.03997802734375 198.3681182861328 L 60.66522216796875 198.3225860595703 Q 58.387176513671875 196.2964324951172 58.40220642089844 194.1924591064453 Q 58.424842834472656 191.02377319335938 63.188560485839844 191.02377319335938 ZM 62.962059020996094 188.3213653564453 Q 59.86035919189453 188.3213653564453 58.05722427368164 189.73057556152344 Q 56.225547790527344 191.16209411621094 56.207828521728516 193.6428985595703 Q 56.18562316894531 196.75177001953125 59.09508514404297 198.31137084960938 L 50.20811080932617 198.24789428710938 L 50.19016647338867 200.76011657714844 L 70.47633361816406 200.90501403808594 L 70.49203491210938 198.70681762695312 L 68.76712799072266 198.38046264648438 Q 70.66295623779297 196.76097106933594 70.68045043945312 194.31155395507812 Q 70.69951629638672 191.64231872558594 68.6072006225586 189.99435424804688 Q 66.51487731933594 188.3463897705078 63.060577392578125 188.32171630859375 Q 63.01115417480469 188.3213653564453 62.962059020996094 188.3213653564453 ZM 63.544525146484375 208.50148010253906 L 67.12443542480469 208.5270538330078 Q 68.52544403076172 210.23289489746094 68.51422882080078 211.8030242919922 Q 68.50772857666016 212.7136993408203 67.87507629394531 213.3529815673828 Q 67.24880981445312 213.9857940673828 66.35009002685547 213.9857940673828 Q 66.34092712402344 213.9857940673828 66.33174133300781 213.98573303222656 Q 65.04422760009766 213.97654724121094 64.26824188232422 212.69912719726562 Q 63.49225997924805 211.4217071533203 63.50706481933594 209.34912109375 L 63.544525146484375 208.50148010253906 ZM 70.20257568359375 204.05821228027344 L 68.81951141357422 204.23675537109375 Q 68.84867095947266 204.55101013183594 68.84754943847656 204.70802307128906 Q 68.8382339477539 206.01185607910156 66.75131225585938 206.01185607910156 Q 66.72716522216797 206.01185607910156 66.70274353027344 206.01168823242188 L 60.42219543457031 205.96682739257812 Q 60.39102554321289 205.9665985107422 60.360084533691406 205.9665985107422 Q 58.2089729309082 205.9665985107422 57.164161682128906 207.04270935058594 Q 56.10431671142578 208.13429260253906 56.08771896362305 210.4580841064453 Q 56.07179260253906 212.68768310546875 57.08991622924805 215.23870849609375 L 59.16249465942383 215.25350952148438 Q 57.95438766479492 212.92095947265625 57.9685173034668 210.94259643554688 Q 57.98611831665039 208.4789276123047 60.37092590332031 208.4789276123047 Q 60.38753128051758 208.4789276123047 60.40425109863281 208.4790496826172 L 62.06859588623047 208.49093627929688 L 62.064334869384766 209.08758544921875 Q 62.038761138916016 212.66749572753906 63.249900817871094 214.57611083984375 Q 64.4610366821289 216.48472595214844 66.72203063964844 216.50086975097656 Q 66.73883056640625 216.50099182128906 66.75557708740234 216.50099182128906 Q 68.36620330810547 216.50099182128906 69.44644165039062 215.38978576660156 Q 70.53791809082031 214.2670135498047 70.55025482177734 212.5398712158203 Q 70.56527709960938 210.43588256835938 68.50885009765625 208.1600799560547 Q 70.58479309082031 207.70384216308594 70.59735870361328 205.94529724121094 Q 70.6047592163086 204.90899658203125 70.20257568359375 204.05821228027344 ZM 50.05110168457031 220.2288360595703 L 50.03315734863281 222.7410430908203 L 70.16231536865234 222.88482666015625 L 70.18025970458984 220.3726043701172 L 50.05110168457031 220.2288360595703 Z"
		fill="rgb(0,0,0)"
		stroke-linecap="square" 
		stroke-miterLimit="10.0" 
		stroke-width="0.0"
	/>
	<defs>
		<linearGradient id="Gradient1"
			gradientUnits="objectBoundingBox"
			spreadMethod="no_cycle" >
			<stop offset="0.0%" stop-color="rgb(153,153,153)" />
			<stop offset="100.0%" stop-color="rgb(229,229,229)" />
		</linearGradient>
		<linearGradient id="Gradient2"
			gradientUnits="objectBoundingBox"
			spreadMethod="no_cycle" >
			<stop offset="0.0%" stop-color="rgb(153,153,153)" />
			<stop offset="100.0%" stop-color="rgb(229,229,229)" />
		</linearGradient>
	</defs>
</svg>
