<?xml version="1.0" standalone="no"?>
<!DOCTYPE svg PUBLIC "-//W3C//DTD SVG 1.1//EN" 
	"http://www.w3.org/Graphics/SVG/1.1/DTD/svg11.dtd">
<svg viewBox="0.0 0.0 640.0 480.0"
	xmlns="http://www.w3.org/2000/svg" version="1.1">
	<!-- javafx.scene.text.Text -->
	<path d="M 147.485595703125 212.73641967773438 Q 152.04190063476562 212.73641967773438 152.04190063476562 218.8178253173828 L 142.38450622558594 218.8178253173828 Q 142.92929077148438 212.73641967773438 147.485595703125 212.73641967773438 ZM 201.8254852294922 204.57843017578125 Q 208.06564331054688 204.57843017578125 208.06564331054688 217.08734130859375 Q 208.06564331054688 229.84347534179688 201.7759552001953 229.84347534179688 Q 195.6348419189453 229.84347534179688 195.6348419189453 217.1862335205078 Q 195.6348419189453 204.57843017578125 201.8254852294922 204.57843017578125 ZM 76.74515533447266 202.35353088378906 L 76.74515533447266 232.06837463378906 L 81.00431823730469 232.06837463378906 L 81.00431823730469 202.35353088378906 ZM 100.4026870727539 209.76988220214844 Q 95.84637451171875 209.76988220214844 92.7262954711914 214.36801147460938 L 92.7262954711914 210.26429748535156 L 88.7642822265625 210.26429748535156 L 88.7642822265625 232.06837463378906 L 92.7262954711914 232.06837463378906 L 92.7262954711914 217.92787170410156 Q 95.94542694091797 213.181396484375 99.61028289794922 213.181396484375 Q 101.24461364746094 213.181396484375 101.96273040771484 214.21969604492188 Q 102.68083953857422 215.2579803466797 102.68083953857422 217.68064880371094 L 102.68083953857422 232.06837463378906 L 106.64285278320312 232.06837463378906 L 106.64285278320312 216.39515686035156 Q 106.64285278320312 213.37916564941406 104.95899963378906 211.57452392578125 Q 103.275146484375 209.76988220214844 100.4026870727539 209.76988220214844 ZM 125.97467041015625 209.76988220214844 Q 121.4183578491211 209.76988220214844 118.29827880859375 214.36801147460938 L 118.29827880859375 210.26429748535156 L 114.33626556396484 210.26429748535156 L 114.33626556396484 232.06837463378906 L 118.29827880859375 232.06837463378906 L 118.29827880859375 217.92787170410156 Q 121.51741027832031 213.181396484375 125.18226623535156 213.181396484375 Q 126.81659698486328 213.181396484375 127.53471374511719 214.21969604492188 Q 128.25282287597656 215.2579803466797 128.25282287597656 217.68064880371094 L 128.25282287597656 232.06837463378906 L 132.21484375 232.06837463378906 L 132.21484375 216.39515686035156 Q 132.21484375 213.37916564941406 130.53097534179688 211.57452392578125 Q 128.8471221923828 209.76988220214844 125.97467041015625 209.76988220214844 ZM 173.66116333007812 209.76988220214844 Q 169.2039031982422 209.76988220214844 166.8267059326172 214.36801147460938 L 166.8267059326172 210.26429748535156 L 162.86468505859375 210.26429748535156 L 162.86468505859375 232.06837463378906 L 166.8267059326172 232.06837463378906 L 166.8267059326172 217.68064880371094 Q 169.35247802734375 213.23085021972656 173.11639404296875 213.23085021972656 Q 173.90879821777344 213.23085021972656 174.94882202148438 213.57693481445312 L 174.94882202148438 209.86875915527344 Q 174.25546264648438 209.76988220214844 173.66116333007812 209.76988220214844 ZM 147.73321533203125 209.76988220214844 Q 143.57310485839844 209.76988220214844 140.87399291992188 212.93418884277344 Q 138.1748809814453 216.09849548339844 138.1748809814453 221.04273986816406 Q 138.1748809814453 226.1847381591797 141.22067260742188 229.37376403808594 Q 144.26646423339844 232.5627899169922 149.1199188232422 232.5627899169922 Q 151.94285583496094 232.5627899169922 155.9048614501953 231.3761749267578 L 155.9048614501953 228.2118682861328 Q 152.33905029296875 229.54681396484375 149.86280822753906 229.54681396484375 Q 143.07786560058594 229.54681396484375 142.23593139648438 221.78436279296875 L 156.00392150878906 221.78436279296875 L 156.00392150878906 220.54830932617188 Q 156.00392150878906 215.3568572998047 153.84957885742188 212.56336975097656 Q 151.6952362060547 209.76988220214844 147.73321533203125 209.76988220214844 ZM 201.8254852294922 201.6118927001953 Q 197.1701202392578 201.6118927001953 194.29766845703125 205.88865661621094 Q 191.42520141601562 210.16542053222656 191.42520141601562 217.1862335205078 Q 191.42520141601562 224.1575927734375 194.2729034423828 228.4838104248047 Q 197.12059020996094 232.8100128173828 201.72642517089844 232.8100128173828 Q 206.53036499023438 232.8100128173828 209.40283203125 228.5332489013672 Q 212.27528381347656 224.25648498535156 212.27528381347656 217.1367950439453 Q 212.27528381347656 210.16542053222656 209.40283203125 205.88865661621094 Q 206.53036499023438 201.6118927001953 201.8254852294922 201.6118927001953 Z"
		fill="rgb(0,0,0)"
		stroke-linecap="square" 
		stroke-miterLimit="10.0" 
		stroke-width="0.0"
	/>
	<!-- javafx.scene.text.Text -->
	<path d="M 204.8438720703125 242.5867462158203 Q 209.6280059814453 242.5867462158203 209.6280059814453 248.97222900390625 L 199.48773193359375 248.97222900390625 Q 200.05975341796875 242.5867462158203 204.8438720703125 242.5867462158203 ZM 261.9007568359375 234.02085876464844 Q 268.45294189453125 234.02085876464844 268.45294189453125 247.1552276611328 Q 268.45294189453125 260.5491638183594 261.8487548828125 260.5491638183594 Q 255.4005889892578 260.5491638183594 255.4005889892578 247.25904846191406 Q 255.4005889892578 234.02085876464844 261.9007568359375 234.02085876464844 ZM 130.56642150878906 231.68470764160156 L 130.56642150878906 262.88531494140625 L 135.0385284423828 262.88531494140625 L 135.0385284423828 231.68470764160156 ZM 155.4068145751953 239.4718780517578 Q 150.62269592285156 239.4718780517578 147.3466033935547 244.2999267578125 L 147.3466033935547 239.99102783203125 L 143.18649291992188 239.99102783203125 L 143.18649291992188 262.88531494140625 L 147.3466033935547 262.88531494140625 L 147.3466033935547 248.0377655029297 Q 150.72669982910156 243.05398559570312 154.57479858398438 243.05398559570312 Q 156.2908477783203 243.05398559570312 157.04486083984375 244.14418029785156 Q 157.79888916015625 245.23439025878906 157.79888916015625 247.7781982421875 L 157.79888916015625 262.88531494140625 L 161.95899963378906 262.88531494140625 L 161.95899963378906 246.4284210205078 Q 161.95899963378906 243.2616424560547 160.19094848632812 241.36676025390625 Q 158.4228973388672 239.4718780517578 155.4068145751953 239.4718780517578 ZM 182.2574005126953 239.4718780517578 Q 177.47328186035156 239.4718780517578 174.1971893310547 244.2999267578125 L 174.1971893310547 239.99102783203125 L 170.03707885742188 239.99102783203125 L 170.03707885742188 262.88531494140625 L 174.1971893310547 262.88531494140625 L 174.1971893310547 248.0377655029297 Q 177.57728576660156 243.05398559570312 181.42538452148438 243.05398559570312 Q 183.1414337158203 243.05398559570312 183.89544677734375 244.14418029785156 Q 184.64947509765625 245.23439025878906 184.64947509765625 247.7781982421875 L 184.64947509765625 262.88531494140625 L 188.80958557128906 262.88531494140625 L 188.80958557128906 246.4284210205078 Q 188.80958557128906 243.2616424560547 187.04153442382812 241.36676025390625 Q 185.2734832763672 239.4718780517578 182.2574005126953 239.4718780517578 ZM 232.32823181152344 239.4718780517578 Q 227.64810180664062 239.4718780517578 225.15203857421875 244.2999267578125 L 225.15203857421875 239.99102783203125 L 220.99192810058594 239.99102783203125 L 220.99192810058594 262.88531494140625 L 225.15203857421875 262.88531494140625 L 225.15203857421875 247.7781982421875 Q 227.80410766601562 243.10589599609375 231.75621032714844 243.10589599609375 Q 232.58822631835938 243.10589599609375 233.68026733398438 243.46929931640625 L 233.68026733398438 239.57571411132812 Q 232.95223999023438 239.4718780517578 232.32823181152344 239.4718780517578 ZM 205.1038818359375 239.4718780517578 Q 200.7357635498047 239.4718780517578 197.9016876220703 242.79440307617188 Q 195.06761169433594 246.11692810058594 195.06761169433594 251.30838012695312 Q 195.06761169433594 256.7074890136719 198.2657012939453 260.05596923828125 Q 201.4637908935547 263.4044494628906 206.55992126464844 263.4044494628906 Q 209.5240020751953 263.4044494628906 213.68411254882812 262.15850830078125 L 213.68411254882812 258.8359680175781 Q 209.9400177001953 260.2376708984375 207.33993530273438 260.2376708984375 Q 200.21575927734375 260.2376708984375 199.33172607421875 252.08709716796875 L 213.78811645507812 252.08709716796875 L 213.78811645507812 250.7892303466797 Q 213.78811645507812 245.3382110595703 211.5260467529297 242.40504455566406 Q 209.2639923095703 239.4718780517578 205.1038818359375 239.4718780517578 ZM 261.9007568359375 230.90599060058594 Q 257.01263427734375 230.90599060058594 253.99655151367188 235.39659118652344 Q 250.98046875 239.88719177246094 250.98046875 247.25904846191406 Q 250.98046875 254.57899475097656 253.97055053710938 259.1214904785156 Q 256.96063232421875 263.6640319824219 261.7967529296875 263.6640319824219 Q 266.84088134765625 263.6640319824219 269.8569641113281 259.1734313964844 Q 272.873046875 254.6828155517578 272.873046875 247.20713806152344 Q 272.873046875 239.88719177246094 269.8569641113281 235.39659118652344 Q 266.84088134765625 230.90599060058594 261.9007568359375 230.90599060058594 Z"
		fill="rgb(0,0,0)"
		stroke-linecap="square" 
		stroke-miterLimit="10.0" 
		stroke-width="0.0"
	/>
	<!-- javafx.scene.text.Text -->
	<path d="M 284.3473205566406 283.79058837890625 Q 288.90362548828125 283.79058837890625 288.90362548828125 289.8719787597656 L 279.2462158203125 289.8719787597656 Q 279.791015625 283.79058837890625 284.3473205566406 283.79058837890625 ZM 338.68719482421875 275.6325988769531 Q 344.9273681640625 275.6325988769531 344.9273681640625 288.1415100097656 Q 344.9273681640625 300.8976135253906 338.6376647949219 300.8976135253906 Q 332.4965515136719 300.8976135253906 332.4965515136719 288.2403869628906 Q 332.4965515136719 275.6325988769531 338.68719482421875 275.6325988769531 ZM 213.60687255859375 273.4076843261719 L 213.60687255859375 303.1225280761719 L 217.8660430908203 303.1225280761719 L 217.8660430908203 273.4076843261719 ZM 237.264404296875 280.82403564453125 Q 232.70809936523438 280.82403564453125 229.5880126953125 285.42218017578125 L 229.5880126953125 281.3184509277344 L 225.62600708007812 281.3184509277344 L 225.62600708007812 303.1225280761719 L 229.5880126953125 303.1225280761719 L 229.5880126953125 288.9820251464844 Q 232.80714416503906 284.2355651855469 236.4720001220703 284.2355651855469 Q 238.10633850097656 284.2355651855469 238.82444763183594 285.2738342285156 Q 239.5425567626953 286.3121337890625 239.5425567626953 288.73480224609375 L 239.5425567626953 303.1225280761719 L 243.50457763671875 303.1225280761719 L 243.50457763671875 287.4493103027344 Q 243.50457763671875 284.4333190917969 241.8207244873047 282.6286926269531 Q 240.13687133789062 280.82403564453125 237.264404296875 280.82403564453125 ZM 262.8363952636719 280.82403564453125 Q 258.28009033203125 280.82403564453125 255.16000366210938 285.42218017578125 L 255.16000366210938 281.3184509277344 L 251.19798278808594 281.3184509277344 L 251.19798278808594 303.1225280761719 L 255.16000366210938 303.1225280761719 L 255.16000366210938 288.9820251464844 Q 258.3791198730469 284.2355651855469 262.0439758300781 284.2355651855469 Q 263.6783142089844 284.2355651855469 264.39642333984375 285.2738342285156 Q 265.1145324707031 286.3121337890625 265.1145324707031 288.73480224609375 L 265.1145324707031 303.1225280761719 L 269.0765686035156 303.1225280761719 L 269.0765686035156 287.4493103027344 Q 269.0765686035156 284.4333190917969 267.3927001953125 282.6286926269531 Q 265.7088623046875 280.82403564453125 262.8363952636719 280.82403564453125 ZM 310.52288818359375 280.82403564453125 Q 306.06561279296875 280.82403564453125 303.68841552734375 285.42218017578125 L 303.68841552734375 281.3184509277344 L 299.7264099121094 281.3184509277344 L 299.7264099121094 303.1225280761719 L 303.68841552734375 303.1225280761719 L 303.68841552734375 288.73480224609375 Q 306.2142028808594 284.2850036621094 309.9781188964844 284.2850036621094 Q 310.7705078125 284.2850036621094 311.810546875 284.631103515625 L 311.810546875 280.92291259765625 Q 311.1171875 280.82403564453125 310.52288818359375 280.82403564453125 ZM 367.8621520996094 272.6660461425781 L 357.9075927734375 275.13818359375 L 357.9075927734375 278.1541442871094 L 363.8506164550781 276.6708679199219 L 363.8506164550781 300.156005859375 L 357.9075927734375 300.156005859375 L 357.9075927734375 303.1225280761719 L 373.8051452636719 303.1225280761719 L 373.8051452636719 300.156005859375 L 367.8621520996094 300.156005859375 L 367.8621520996094 272.6660461425781 ZM 284.5949401855469 280.82403564453125 Q 280.4348449707031 280.82403564453125 277.7357177734375 283.98834228515625 Q 275.0365905761719 287.15264892578125 275.0365905761719 292.0968933105469 Q 275.0365905761719 297.2388916015625 278.0823974609375 300.42791748046875 Q 281.128173828125 303.616943359375 285.9816589355469 303.616943359375 Q 288.8045654296875 303.616943359375 292.7665710449219 302.4303283691406 L 292.7665710449219 299.2660217285156 Q 289.2007751464844 300.6009826660156 286.7245178222656 300.6009826660156 Q 279.9395751953125 300.6009826660156 279.09765625 292.8385314941406 L 292.8656311035156 292.8385314941406 L 292.8656311035156 291.60247802734375 Q 292.8656311035156 286.4110107421875 290.7113037109375 283.6175231933594 Q 288.55694580078125 280.82403564453125 284.5949401855469 280.82403564453125 ZM 338.68719482421875 272.6660461425781 Q 334.0318298339844 272.6660461425781 331.1593933105469 276.94281005859375 Q 328.28692626953125 281.2195739746094 328.28692626953125 288.2403869628906 Q 328.28692626953125 295.2117614746094 331.1346130371094 299.5379638671875 Q 333.9823303222656 303.8641662597656 338.5881652832031 303.8641662597656 Q 343.39208984375 303.8641662597656 346.2645568847656 299.58740234375 Q 349.1369934082031 295.3106384277344 349.1369934082031 288.1909484863281 Q 349.1369934082031 281.2195739746094 346.2645568847656 276.94281005859375 Q 343.39208984375 272.6660461425781 338.68719482421875 272.6660461425781 Z"
		fill="rgb(0,0,0)"
		stroke-linecap="square" 
		stroke-miterLimit="10.0" 
		stroke-width="0.0"
	/>
	<!-- de.fxdiagram.core.XRapidButton not yet implemented -->
	<!-- de.fxdiagram.core.XRapidButton not yet implemented -->
	<!-- de.fxdiagram.core.XRapidButton not yet implemented -->
	<!-- de.fxdiagram.core.XRapidButton not yet implemented -->
	<!-- javafx.scene.text.Text -->
	<path d="M 292.5434875488281 882.11767578125 Q 300.71417236328125 882.11767578125 300.71417236328125 893.0232543945312 L 283.3958740234375 893.0232543945312 Q 284.372802734375 882.11767578125 292.5434875488281 882.11767578125 ZM 247.80181884765625 882.11767578125 Q 253.30813598632812 882.11767578125 258.0151672363281 886.994140625 L 258.0151672363281 903.2195434570312 Q 252.59764099121094 909.6919555664062 246.38082885742188 909.6919555664062 Q 237.32203674316406 909.6919555664062 237.32203674316406 896.8357543945312 Q 237.32203674316406 890.0086669921875 240.11959838867188 886.0631713867188 Q 242.91717529296875 882.11767578125 247.80181884765625 882.11767578125 ZM 178.6258087158203 897.722412109375 L 181.0237274169922 897.81103515625 L 181.0237274169922 907.918701171875 Q 176.22789001464844 911.9085083007812 171.7873077392578 911.9085083007812 Q 169.21177673339844 911.9085083007812 167.39112854003906 910.13525390625 Q 165.57049560546875 908.3619995117188 165.57049560546875 905.790771484375 Q 165.57049560546875 902.1555786132812 169.1673583984375 899.93896484375 Q 172.7642364501953 897.722412109375 178.6258087158203 897.722412109375 ZM 222.007568359375 876.7978515625 Q 214.01451110839844 876.7978515625 209.7515411376953 885.0435791015625 L 209.7515411376953 877.6845092773438 L 202.6466064453125 877.6845092773438 L 202.6466064453125 916.7849731445312 L 209.7515411376953 916.7849731445312 L 209.7515411376953 890.9840087890625 Q 214.28094482421875 883.0042724609375 221.0306396484375 883.0042724609375 Q 222.4516143798828 883.0042724609375 224.31666564941406 883.6249389648438 L 224.31666564941406 876.9752197265625 Q 223.07330322265625 876.7978515625 222.007568359375 876.7978515625 ZM 141.57467651367188 869.8821411132812 L 134.46974182128906 870.5914306640625 L 134.46974182128906 877.6845092773438 L 129.58509826660156 877.6845092773438 L 129.58509826660156 883.0042724609375 L 134.46974182128906 883.0042724609375 L 134.46974182128906 905.9680786132812 Q 134.46974182128906 911.4652099609375 137.5337371826172 914.5684204101562 Q 140.59774780273438 917.671630859375 145.92645263671875 917.671630859375 Q 148.41317749023438 917.671630859375 151.69921875 916.7849731445312 L 151.69921875 911.9085083007812 Q 149.6565399169922 912.3518676757812 148.2355499267578 912.3518676757812 Q 141.57467651367188 912.3518676757812 141.57467651367188 904.6381225585938 L 141.57467651367188 883.0042724609375 L 151.8768310546875 883.0042724609375 L 151.8768310546875 877.6845092773438 L 141.57467651367188 877.6845092773438 L 141.57467651367188 869.8821411132812 ZM 175.33978271484375 876.7978515625 Q 169.03414916992188 876.7978515625 161.84039306640625 879.7237548828125 L 161.84039306640625 885.5755004882812 Q 168.41246032714844 882.11767578125 174.00759887695312 882.11767578125 Q 181.0237274169922 882.11767578125 181.0237274169922 888.9447631835938 L 181.0237274169922 893.6438598632812 L 179.3363037109375 893.6438598632812 Q 169.21177673339844 893.6438598632812 163.8386688232422 897.1017456054688 Q 158.46556091308594 900.5596313476562 158.46556091308594 906.943359375 Q 158.46556091308594 911.5538940429688 161.66278076171875 914.6127319335938 Q 164.86000061035156 917.671630859375 169.74464416503906 917.671630859375 Q 175.6950225830078 917.671630859375 182.0894775390625 911.8198852539062 Q 183.42164611816406 917.671630859375 188.3950958251953 917.671630859375 Q 191.3258819580078 917.671630859375 193.7238006591797 916.5189819335938 L 193.19093322753906 912.6177978515625 Q 192.3028106689453 912.7064819335938 191.8587646484375 912.7064819335938 Q 188.128662109375 912.7064819335938 188.128662109375 906.6773681640625 L 188.128662109375 888.9447631835938 Q 188.128662109375 882.73828125 185.020263671875 879.76806640625 Q 181.91184997558594 876.7978515625 175.33978271484375 876.7978515625 ZM 292.987548828125 876.7978515625 Q 285.5273742675781 876.7978515625 280.6871337890625 882.4722900390625 Q 275.8468933105469 888.1467895507812 275.8468933105469 897.0131225585938 Q 275.8468933105469 906.2340698242188 281.3088073730469 911.952880859375 Q 286.7707214355469 917.671630859375 295.4742736816406 917.671630859375 Q 300.53656005859375 917.671630859375 307.6414794921875 915.543701171875 L 307.6414794921875 909.8692626953125 Q 301.2470397949219 912.26318359375 296.80645751953125 912.26318359375 Q 284.6392517089844 912.26318359375 283.12945556640625 898.343017578125 L 307.819091796875 898.343017578125 L 307.819091796875 896.12646484375 Q 307.819091796875 886.8168334960938 303.955810546875 881.8073120117188 Q 300.0924987792969 876.7978515625 292.987548828125 876.7978515625 ZM 327.4936828613281 869.8821411132812 L 320.38873291015625 870.5914306640625 L 320.38873291015625 877.6845092773438 L 315.50408935546875 877.6845092773438 L 315.50408935546875 883.0042724609375 L 320.38873291015625 883.0042724609375 L 320.38873291015625 905.9680786132812 Q 320.38873291015625 911.4652099609375 323.4527282714844 914.5684204101562 Q 326.5167541503906 917.671630859375 331.845458984375 917.671630859375 Q 334.3321838378906 917.671630859375 337.61822509765625 916.7849731445312 L 337.61822509765625 911.9085083007812 Q 335.5755310058594 912.3518676757812 334.154541015625 912.3518676757812 Q 327.4936828613281 912.3518676757812 327.4936828613281 904.6381225585938 L 327.4936828613281 883.0042724609375 L 337.79583740234375 883.0042724609375 L 337.79583740234375 877.6845092773438 L 327.4936828613281 877.6845092773438 L 327.4936828613281 869.8821411132812 ZM 246.73606872558594 876.7978515625 Q 239.27589416503906 876.7978515625 234.5244598388672 882.427978515625 Q 229.77304077148438 888.05810546875 229.77304077148438 897.0131225585938 Q 229.77304077148438 905.6134033203125 233.9471893310547 910.7559204101562 Q 238.121337890625 915.8983764648438 245.13746643066406 915.8983764648438 Q 254.10745239257812 915.8983764648438 258.0151672363281 907.6527099609375 L 258.0151672363281 913.859130859375 Q 258.0151672363281 926.5379638671875 246.02557373046875 926.5379638671875 Q 239.98638916015625 926.5379638671875 233.85836791992188 923.612060546875 L 233.05906677246094 929.8184814453125 Q 239.27589416503906 931.8577270507812 246.2032012939453 931.8577270507812 Q 255.9724884033203 931.8577270507812 260.5906982421875 926.9812622070312 Q 263.25506591796875 924.14404296875 264.23199462890625 919.7108764648438 Q 265.20892333984375 915.2777099609375 265.20892333984375 906.1453857421875 L 265.20892333984375 877.6845092773438 L 258.0151672363281 877.6845092773438 L 258.0151672363281 882.11767578125 Q 253.30813598632812 876.7978515625 246.73606872558594 876.7978515625 Z"
		fill="rgb(0,0,0)"
		stroke-linecap="square" 
		stroke-miterLimit="10.0" 
		stroke-width="0.0"
	/>
	<!-- de.fxdiagram.core.XRapidButton not yet implemented -->
	<!-- de.fxdiagram.core.XRapidButton not yet implemented -->
	<!-- de.fxdiagram.core.XRapidButton not yet implemented -->
	<!-- de.fxdiagram.core.XRapidButton not yet implemented -->
	<defs>
	</defs>
</svg>
